<?xml version="1.0" encoding="UTF-8"?>
<svg version="1.1" xmlns="http://www.w3.org/2000/svg" width="353" height="390">
<path d="M0 0 C116.49 0 232.98 0 353 0 C353 128.7 353 257.4 353 390 C236.51 390 120.02 390 0 390 C0 261.3 0 132.6 0 0 Z " fill="#26353C" transform="translate(0,0)"/>
<path d="M0 0 C96.03 0 192.06 0 291 0 C291.0825 32.938125 291.165 65.87625 291.25 99.8125 C291.28641602 110.20596924 291.32283203 120.59943848 291.36035156 131.30786133 C291.37841797 144.01696777 291.37841797 144.01696777 291.3817749 149.97001648 C291.38549574 154.12045374 291.40046258 158.27068554 291.42230225 162.42106628 C291.4498276 167.72253313 291.45794825 173.0237031 291.4522891 178.32523477 C291.45347171 180.26625748 291.46135101 182.20729103 291.47686052 184.14825213 C291.57503125 197.03737151 291.35308647 208.45834689 281.93359375 218.34375 C276.6625863 222.85871395 270.57277179 225.11543814 263.6626339 225.13701439 C262.79695459 225.14208893 261.93127528 225.14716347 261.03936327 225.15239179 C260.09288065 225.15288955 259.14639804 225.15338731 258.17123413 225.15390015 C256.65760959 225.16047353 256.65760959 225.16047353 255.11340678 225.1671797 C251.72192425 225.18056637 248.33046771 225.1867463 244.93896484 225.19287109 C242.51128014 225.20077216 240.0835966 225.20904111 237.65591431 225.21765137 C230.36344657 225.24160692 223.0709771 225.25679893 215.77848381 225.26971143 C213.71781476 225.27342511 211.65714637 225.27739819 209.59647799 225.2814641 C196.79233948 225.30670224 183.98819986 225.32874924 171.18404198 225.34119225 C168.21953706 225.3441218 165.25503218 225.34708349 162.29052734 225.35009766 C161.55373999 225.35084371 160.81695264 225.35158976 160.0578384 225.35235842 C148.12756753 225.36500676 136.19744588 225.39822427 124.26724474 225.43989949 C112.01095434 225.48236187 99.75474024 225.50589222 87.49837649 225.51111281 C80.62002521 225.51452204 73.74190712 225.52621934 66.86362839 225.55921555 C60.39082989 225.59021627 53.91832613 225.59560876 47.44546127 225.58383179 C45.07273342 225.58361103 42.69998674 225.59191781 40.32732391 225.60948563 C37.08128506 225.63220745 33.83671519 225.62386693 30.59066772 225.60800171 C29.65756944 225.6218838 28.72447116 225.63576588 27.76309717 225.65006864 C20.08057131 225.55791292 13.5885216 223.26330825 7.84410417 218.03948438 C1.46015041 211.40333992 -0.46243832 204.2556552 -0.36076355 195.29333496 C-0.3633316 194.45546448 -0.36589966 193.61759399 -0.36854553 192.7543335 C-0.37348328 189.95776802 -0.35698696 187.16175001 -0.34057617 184.36523438 C-0.33965657 182.32174954 -0.34005866 180.27826376 -0.34167194 178.23477936 C-0.34234785 172.77372721 -0.32498917 167.31287317 -0.30384064 161.85186768 C-0.28672691 156.72317903 -0.28594971 151.59453801 -0.28381348 146.46582031 C-0.26808578 131.47718741 -0.22620218 116.48859119 -0.1875 101.5 C-0.125625 68.005 -0.06375 34.51 0 0 Z " fill="#F7F6F4" transform="translate(31,131)"/>
<path d="M0 0 C116.49 0 232.98 0 353 0 C353 128.7 353 257.4 353 390 C236.51 390 120.02 390 0 390 C0 261.3 0 132.6 0 0 Z M66.09375 22.296875 C63.01187231 26.74524562 60.8609094 30.50094958 60.90234375 36.01171875 C60.90556641 36.76904297 60.90878906 37.52636719 60.91210938 38.30664062 C60.92048828 39.09232422 60.92886719 39.87800781 60.9375 40.6875 C60.94201172 41.48478516 60.94652344 42.28207031 60.95117188 43.10351562 C60.9629415 45.06904257 60.98087652 47.03453085 61 49 C59.47632812 48.91298828 59.47632812 48.91298828 57.921875 48.82421875 C46.02557339 48.34679947 37.21203077 50.26058497 27.6875 57.9375 C21.16500949 64.18646671 15.42680014 73.93586824 14.8723495 83.11279207 C14.871103 83.87690211 14.86985651 84.64101214 14.86857224 85.42827702 C14.86473109 86.31424 14.86088995 87.20020298 14.8569324 88.11301333 C14.85779888 89.08215951 14.85866537 90.0513057 14.85955811 91.04981995 C14.85658698 92.08269872 14.85361586 93.1155775 14.8505547 94.17975563 C14.84186111 97.65182765 14.84035888 101.12386521 14.83886719 104.59594727 C14.83423941 107.08112156 14.8292148 109.56629514 14.82382202 112.0514679 C14.81069035 118.8120859 14.80421452 125.5726904 14.79981136 132.333318 C14.7970471 136.55735159 14.79280933 140.78138291 14.78830719 145.00541496 C14.77611377 156.70729332 14.7658156 168.40916985 14.7624321 180.11105442 C14.76221253 180.85992001 14.76199297 181.6087856 14.76176675 182.38034409 C14.76154847 183.13097843 14.76133019 183.88161276 14.7611053 184.65499359 C14.76066184 186.17600159 14.76021527 187.69700958 14.75976562 189.21801758 C14.7595442 189.97248631 14.75932277 190.72695504 14.75909463 191.50428646 C14.75515003 203.71836356 14.73770669 215.93238088 14.7144061 228.14643491 C14.69066055 240.69540474 14.67822874 253.24434463 14.67706418 265.79333729 C14.67614905 272.83541331 14.67043806 279.8774115 14.65224457 286.91946602 C14.63518126 293.54735034 14.63361491 300.17511339 14.64238358 306.80302238 C14.6431533 309.23175832 14.63881986 311.66050223 14.62892532 314.08921814 C14.61618022 317.41341809 14.62209701 320.73709769 14.63250732 324.06129456 C14.62445092 325.01482569 14.61639452 325.96835682 14.60809398 326.95078284 C14.70192291 339.82540198 18.89731311 350.60849105 27.5 360.1875 C36.99251196 369.22099301 48.29270731 372.14964256 60.96679688 372.14717102 C61.97870118 372.15084771 62.99060549 372.1545244 64.03317356 372.1583125 C67.42837084 372.16933697 70.82353751 372.17319112 74.21875 372.17700195 C76.65156654 372.1832676 79.08438212 372.18991449 81.51719666 372.19691467 C88.82113194 372.21613145 96.12506467 372.22674192 103.42901754 372.23564246 C106.87318098 372.24003092 110.31734289 372.24539632 113.76150513 372.25063133 C125.21893494 372.26764145 136.67636382 372.28213362 148.13380432 372.28938007 C151.10499065 372.2912898 154.07617698 372.29321016 157.04736328 372.29516602 C157.78578882 372.29564976 158.52421435 372.2961335 159.28501642 372.2966319 C171.23580491 372.30492477 183.18649307 372.33025006 195.13723779 372.36274669 C207.42182566 372.39587726 219.70636265 372.41383429 231.99099541 372.41702431 C238.88224385 372.419184 245.77334604 372.42785281 252.66455078 372.45348549 C259.15212071 372.47756179 265.6394994 372.48098063 272.12710762 372.47072411 C274.50179481 372.47022974 276.87649512 372.47652063 279.2511425 372.49028015 C294.60502956 372.57423218 308.13632967 372.470376 321 363 C321.845625 362.443125 322.69125 361.88625 323.5625 361.3125 C331.47015822 353.81036271 336.95764322 343.64915123 337.50336456 332.6479187 C337.52501796 330.75091642 337.52548799 328.85358762 337.50793457 326.95654297 C337.51417453 325.90134901 337.5204145 324.84615505 337.52684355 323.75898552 C337.54269012 320.2531531 337.53020158 316.74802403 337.51757812 313.2421875 C337.52300292 310.71656898 337.53012758 308.19095363 337.53881836 305.66534424 C337.55512556 299.53558145 337.55279249 293.40607547 337.5411678 287.27630949 C337.53210831 282.29142877 337.5309203 277.30660291 337.53526306 272.32171631 C337.53618246 271.25465102 337.53618246 271.25465102 337.53712043 270.16602886 C337.53839942 268.72056276 337.53969628 267.27509668 337.5410108 265.82963061 C337.55239778 252.29784445 337.53933252 238.76616694 337.51780933 225.2343986 C337.49994003 213.6412374 337.50304467 202.04823644 337.52148438 190.45507812 C337.54292444 176.96939268 337.55129932 163.4838023 337.53903532 149.99810219 C337.53776122 148.5581627 337.53650373 147.1182232 337.53526306 145.67828369 C337.53464596 144.96993594 337.53402886 144.26158819 337.53339306 143.53177536 C337.52994954 138.55694717 337.53574686 133.58217963 337.54518127 128.60736084 C337.55761709 121.90296326 337.54867445 115.19891364 337.52560425 108.49452972 C337.52032867 106.03838349 337.52181111 103.58221173 337.53065491 101.12607574 C337.54163905 97.76486345 337.52781097 94.40460886 337.50793457 91.04345703 C337.51685746 90.07913694 337.52578034 89.11481686 337.53497362 88.12127495 C337.40909106 77.09300649 333.61066104 67.97235582 326 60 C317.76813489 52.14160325 309.11462966 48.66330677 297.8125 48.75 C295.54102306 48.81341112 293.26968487 48.88973191 291 49 C291.04640625 48.10539062 291.0928125 47.21078125 291.140625 46.2890625 C291.43462697 36.43999665 290.36444755 29.02700462 284.25 21.125 C278.62370008 15.2486423 273.62991193 13.75027534 265.5 13.5 C256.8316907 13.77518442 252.12769413 15.50234241 246.1875 21.75 C238.99618886 30.73092966 240 36.43917072 240 49 C227.13 49 214.26 49 201 49 C201 43.72 201 38.44 201 33 C198.05281099 24.80313057 193.59650494 18.84115583 185.70703125 14.8359375 C179.1023861 12.79640783 169.83035015 12.67580604 163.4375 15.5625 C156.79099285 19.66599572 154.04425419 24.89674022 151 32 C151 37.61 151 43.22 151 49 C137.8 49 124.6 49 111 49 C111 43.72 111 38.44 111 33 C108.17696684 24.32178695 103.81800691 19.75878682 96 15 C85.14962908 11.38320969 73.5068088 13.36474677 66.09375 22.296875 Z " fill="#F6F5F3" transform="translate(0,0)"/>
<path d="M0 0 C6.68200315 4.13647814 10.9026498 9.8954494 13.375 17.3125 C13.375 22.5925 13.375 27.8725 13.375 33.3125 C26.575 33.3125 39.775 33.3125 53.375 33.3125 C53.375 27.7025 53.375 22.0925 53.375 16.3125 C56.23609318 8.4228188 60.04475342 2.98222626 67.63671875 -0.8203125 C74.18364575 -2.89366171 83.50262324 -3.01688536 89.875 -0.1875 C96.8357719 4.10421775 100.20894837 9.92504621 103.375 17.3125 C103.375 22.5925 103.375 27.8725 103.375 33.3125 C116.245 33.3125 129.115 33.3125 142.375 33.3125 C142.375 28.3625 142.375 23.4125 142.375 18.3125 C144.85726261 10.67476891 148.85475439 4.19151897 155.8125 -0.125 C162.5705047 -3.11411747 171.34109528 -3.12935953 178.23828125 -0.6640625 C182.5755412 1.67848379 186.51206269 4.0574992 188.32421875 8.79296875 C188.56785156 9.68628906 188.81148437 10.57960938 189.0625 11.5 C189.43955078 12.85158203 189.43955078 12.85158203 189.82421875 14.23046875 C190.00597656 14.91753906 190.18773437 15.60460937 190.375 16.3125 C188.725 15.6525 187.075 14.9925 185.375 14.3125 C182.00908573 17.03728774 180.93273724 20.38106792 179.375 24.3125 C179.045 24.3125 178.715 24.3125 178.375 24.3125 C178.36041748 25.40715576 178.34583496 26.50181152 178.33081055 27.62963867 C178.27271261 31.70206905 178.19548073 35.77395315 178.11254883 39.84594727 C178.07935346 41.60627355 178.05130476 43.36670488 178.02856445 45.12719727 C177.9949188 47.66207525 177.9425994 50.19599523 177.88671875 52.73046875 C177.88032883 53.51399216 177.8739389 54.29751556 177.86735535 55.1047821 C177.73364232 60.10624782 176.98550871 63.70199129 173.375 67.3125 C174.365 66.9825 175.355 66.6525 176.375 66.3125 C177.365 66.9725 178.355 67.6325 179.375 68.3125 C180.695 67.6525 182.015 66.9925 183.375 66.3125 C183.375 66.9725 183.375 67.6325 183.375 68.3125 C184.365 67.9825 185.355 67.6525 186.375 67.3125 C186.375 67.9725 186.375 68.6325 186.375 69.3125 C187.035 69.3125 187.695 69.3125 188.375 69.3125 C188.375 70.3025 188.375 71.2925 188.375 72.3125 C192.07588212 64.68696149 193.11059871 57.74690131 193.375 49.3125 C202.24904112 48.74446038 209.23645248 48.55904379 216.375 54.3125 C221.47871288 59.19431232 221.94059565 62.00928696 224.375 69.3125 C224.375 79.2125 224.375 89.1125 224.375 99.3125 C128.345 99.3125 32.315 99.3125 -66.625 99.3125 C-66.625 62.74230936 -66.625 62.74230936 -60.37109375 55.81640625 C-59.60925781 55.17574219 -58.84742188 54.53507812 -58.0625 53.875 C-57.29808594 53.21628906 -56.53367187 52.55757812 -55.74609375 51.87890625 C-51.75765804 48.93348687 -48.24730493 49.20587335 -43.4375 49.25 C-42.16519531 49.25902344 -40.89289062 49.26804688 -39.58203125 49.27734375 C-38.11830078 49.29474609 -38.11830078 49.29474609 -36.625 49.3125 C-36.61082031 50.36308594 -36.59664062 51.41367188 -36.58203125 52.49609375 C-36.31029976 64.2576352 -36.31029976 64.2576352 -30.625 74.3125 C-27.98985296 75.84456223 -26.61452295 76.3125 -23.625 76.3125 C-23.625 74.6625 -23.625 73.0125 -23.625 71.3125 C-24.945 71.3125 -26.265 71.3125 -27.625 71.3125 C-27.955 70.3225 -28.285 69.3325 -28.625 68.3125 C-27.965 68.3125 -27.305 68.3125 -26.625 68.3125 C-26.13 66.8275 -26.13 66.8275 -25.625 65.3125 C-23.6875 65.6875 -23.6875 65.6875 -21.625 66.3125 C-21.295 66.9725 -20.965 67.6325 -20.625 68.3125 C-18.645 67.8175 -18.645 67.8175 -16.625 67.3125 C-17.264375 66.714375 -17.90375 66.11625 -18.5625 65.5 C-22.39471405 61.43553055 -21.78583339 56.9340877 -21.79296875 51.6640625 C-21.79796135 50.38974869 -21.79796135 50.38974869 -21.80305481 49.08969116 C-21.80811658 47.29254701 -21.81046337 45.49539346 -21.81030273 43.69824219 C-21.81248614 40.95491963 -21.83064113 38.21200125 -21.84960938 35.46875 C-21.8525441 33.72135554 -21.85452837 31.97395917 -21.85546875 30.2265625 C-21.86265427 29.4087027 -21.86983978 28.5908429 -21.87724304 27.74819946 C-21.86020223 23.47918434 -21.60072534 20.20717977 -19.625 16.3125 C-21.275 16.3125 -22.925 16.3125 -24.625 16.3125 C-24.625 15.3225 -24.625 14.3325 -24.625 13.3125 C-24.99625 12.673125 -25.3675 12.03375 -25.75 11.375 C-26.625 9.3125 -26.625 9.3125 -25.875 7.1875 C-24.625 5.3125 -24.625 5.3125 -22.625 3.3125 C-23.945 2.9825 -25.265 2.6525 -26.625 2.3125 C-19.34116499 -3.3724444 -8.37183197 -3.90685492 0 0 Z " fill="#26363D" transform="translate(97.625,15.6875)"/>
<path d="M0 0 C1.27230469 0.00902344 2.54460938 0.01804687 3.85546875 0.02734375 C5.31919922 0.04474609 5.31919922 0.04474609 6.8125 0.0625 C6.82667969 1.11308594 6.84085938 2.16367188 6.85546875 3.24609375 C7.11265902 12.43380583 7.74879228 19.55240482 14.23046875 26.60546875 C20.06649989 31.94082161 26.2562431 33.66050847 33.96875 33.40625 C40.38531704 32.63062102 45.83590451 30.57723744 50.25 25.75 C56.60491308 17.1870239 56.03724679 11.69129816 56.8125 0.0625 C70.0125 0.0625 83.2125 0.0625 96.8125 0.0625 C97.3075 7.4875 97.3075 7.4875 97.8125 15.0625 C99.73191054 21.82613716 102.21408988 26.66387856 108.3125 30.3125 C115.26556869 33.78903434 123.20724048 34.57458112 130.6796875 32.12109375 C135.4359669 29.86997635 139.0822518 27.68292002 141.8125 23.0625 C142.16957031 22.46050781 142.52664062 21.85851562 142.89453125 21.23828125 C146.75925092 13.85024823 146.15572712 9.25732038 146.8125 0.0625 C159.6825 0.0625 172.5525 0.0625 185.8125 0.0625 C186.1425 4.3525 186.4725 8.6425 186.8125 13.0625 C188.60917772 20.15937701 190.8208959 25.24226384 196.90234375 29.5390625 C203.6874176 33.4759449 210.09318517 34.20855779 217.8125 33.0625 C224.82892716 31.04539783 228.86372155 27.60426498 232.65625 21.44140625 C235.11556387 16.38153414 236.09447497 11.79024208 236.4375 6.1875 C236.51226562 5.03507812 236.58703125 3.88265625 236.6640625 2.6953125 C236.71304687 1.82648438 236.76203125 0.95765625 236.8125 0.0625 C245.68654112 -0.50553962 252.67395248 -0.69095621 259.8125 5.0625 C264.91621288 9.94431232 265.37809565 12.75928696 267.8125 20.0625 C267.8125 29.9625 267.8125 39.8625 267.8125 50.0625 C171.7825 50.0625 75.7525 50.0625 -23.1875 50.0625 C-23.1875 13.49230936 -23.1875 13.49230936 -16.93359375 6.56640625 C-16.17175781 5.92574219 -15.40992188 5.28507812 -14.625 4.625 C-13.86058594 3.96628906 -13.09617187 3.30757813 -12.30859375 2.62890625 C-8.32015804 -0.31651313 -4.80980493 -0.04412665 0 0 Z " fill="#5F9DC3" transform="translate(54.1875,64.9375)"/>
<path d="M0 0 C2.5625 1.4375 2.5625 1.4375 4 4 C4.72983679 7.38443923 4.28071381 9.79601695 3 13 C1.18887201 14.6509135 -0.65852434 16.26234429 -2.52734375 17.84765625 C-8.11815601 23.32183612 -9.03317127 28.38812233 -9.1875 36.05859375 C-9.21497849 40.18936717 -9.12082302 44.30874085 -9 48.4375 C-8.95133213 51.5866966 -8.91832227 54.73526649 -8.8996582 57.88478088 C-8.88357358 59.83276177 -8.84787038 61.78070859 -8.78979492 63.72789001 C-8.70172186 68.67152699 -8.72666804 71.9997551 -12 76 C-15.88586752 79.40013408 -19.12405984 80.12350838 -24.20239258 80.17700195 C-25.79468437 80.19625481 -25.79468437 80.19625481 -27.41914368 80.21589661 C-28.56602158 80.22328354 -29.71289948 80.23067047 -30.89453125 80.23828125 C-32.07464279 80.246353 -33.25475433 80.25442474 -34.47062683 80.26274109 C-36.96974214 80.27657914 -39.46887633 80.28730254 -41.96801758 80.29516602 C-45.78698559 80.31238496 -49.60508939 80.35627612 -53.42382812 80.40039062 C-55.85155613 80.41051705 -58.2792915 80.41903331 -60.70703125 80.42578125 C-62.41823906 80.45204338 -62.41823906 80.45204338 -64.16401672 80.47883606 C-70.23148012 80.4622618 -74.37053621 80.37437374 -79 76 C-81.60783258 72.32693735 -82.38347991 69.79578521 -82.43579102 65.31103516 C-82.45493057 64.19282379 -82.47407013 63.07461243 -82.49378967 61.92251587 C-82.49712814 60.72347626 -82.50046661 59.52443665 -82.50390625 58.2890625 C-82.51389145 57.04756439 -82.52387665 55.80606628 -82.53416443 54.52694702 C-82.54934116 51.90276418 -82.55639036 49.27852356 -82.5559082 46.65429688 C-82.55566409 43.97106395 -82.57653026 41.28936392 -82.61743164 38.60644531 C-82.67245812 34.72934163 -82.6871195 30.85401795 -82.69140625 26.9765625 C-82.7129628 25.78157135 -82.73451935 24.5865802 -82.75672913 23.3553772 C-82.7035423 16.87540573 -82.2358365 12.87394753 -77.5811615 8.17269897 C-74.58670615 5.95180331 -71.77010476 5.86406308 -68.18066406 5.82299805 C-67.2024469 5.81016281 -66.22422974 5.79732758 -65.21636963 5.78410339 C-63.63200104 5.77302299 -63.63200104 5.77302299 -62.015625 5.76171875 C-60.92666931 5.753647 -59.83771362 5.74557526 -58.71575928 5.73725891 C-56.40915518 5.72342226 -54.10253063 5.71269823 -51.79589844 5.70483398 C-48.27759733 5.68763491 -44.76023922 5.64374529 -41.2421875 5.59960938 C-39.0000069 5.58948103 -36.75781832 5.58096537 -34.515625 5.57421875 C-33.4674762 5.55671066 -32.41932739 5.53920258 -31.3394165 5.52116394 C-24.9955094 5.53989531 -21.2040848 6.3062331 -16 10 C-15.79375 9.46375 -15.5875 8.9275 -15.375 8.375 C-11.47972419 1.64679632 -7.90732468 -1.27537495 0 0 Z " fill="#79B269" transform="translate(140,249)"/>
<path d="M0 0 C3.21605752 2.37708599 4.73163575 3.90214626 5.6875 7.8125 C4.58413281 12.92811154 1.31432489 16.82536632 -2.47331238 20.38438416 C-6.65132902 24.57784472 -7.68964036 27.6523408 -7.7552948 33.52578735 C-7.7367897 34.45829315 -7.71828461 35.39079895 -7.69921875 36.3515625 C-7.70581009 37.32862152 -7.71240143 38.30568054 -7.7191925 39.31234741 C-7.73660905 42.41726852 -7.71473108 45.52017528 -7.6875 48.625 C-7.67618786 51.73656029 -7.67355662 54.84752557 -7.6879425 57.95907593 C-7.69531127 59.89009184 -7.68717623 61.82124585 -7.6615448 63.75210571 C-7.66565949 72.19245768 -7.66565949 72.19245768 -11 76 C-16.45552172 81.15513671 -22.32306374 80.58098001 -29.40625 80.53125 C-30.60431274 80.5350769 -31.80237549 80.53890381 -33.03674316 80.54284668 C-35.56503135 80.54556376 -38.09334775 80.53821699 -40.62158203 80.52148438 C-44.48664148 80.500074 -48.34984197 80.52129525 -52.21484375 80.546875 C-54.67448326 80.54423169 -57.13412162 80.53910665 -59.59375 80.53125 C-60.74701782 80.53934692 -61.90028564 80.54744385 -63.08850098 80.55578613 C-69.16312978 80.48495356 -73.36835409 80.37662411 -78 76 C-80.60124705 72.33657422 -81.37715934 69.84517479 -81.38818359 65.37109375 C-81.39764008 64.26644775 -81.40709656 63.16180176 -81.4168396 62.02368164 C-81.41076691 60.8402417 -81.40469421 59.65680176 -81.3984375 58.4375 C-81.40130768 57.21345459 -81.40417786 55.98940918 -81.40713501 54.72827148 C-81.40917466 52.14273617 -81.40365179 49.5571854 -81.39111328 46.97167969 C-81.37505933 43.01462288 -81.3909665 39.05858754 -81.41015625 35.1015625 C-81.4081738 32.58853941 -81.4043301 30.07551696 -81.3984375 27.5625 C-81.40451019 26.37906006 -81.41058289 25.19562012 -81.4168396 23.97631836 C-81.40738312 22.87167236 -81.39792664 21.76702637 -81.38818359 20.62890625 C-81.38579681 19.66025635 -81.38341003 18.69160645 -81.38095093 17.69360352 C-80.75608758 13.27535964 -78.40397729 9.83664774 -75 7 C-72.11209092 6.03736364 -70.24471475 5.863034 -67.24072266 5.83886719 C-66.27607086 5.82925964 -65.31141907 5.8196521 -64.3175354 5.80975342 C-63.27688934 5.80550354 -62.23624329 5.80125366 -61.1640625 5.796875 C-60.09255951 5.79117493 -59.02105652 5.78547485 -57.91708374 5.77960205 C-55.64915962 5.77015262 -53.38122178 5.7636183 -51.11328125 5.75976562 C-47.64558962 5.75005764 -44.17849006 5.71903216 -40.7109375 5.6875 C-38.50781602 5.6809701 -36.3046903 5.67571958 -34.1015625 5.671875 C-33.0649649 5.6595282 -32.02836731 5.6471814 -30.96035767 5.63446045 C-21.88697291 5.6625051 -21.88697291 5.6625051 -18 9 C-17.505 9.99 -17.505 9.99 -17 11 C-16.37351562 10.28972656 -15.74703125 9.57945312 -15.1015625 8.84765625 C-14.28429687 7.92855469 -13.46703125 7.00945312 -12.625 6.0625 C-11.81289062 5.14597656 -11.00078125 4.22945312 -10.1640625 3.28515625 C-6.8758355 -0.18706901 -4.73749627 -0.5573525 0 0 Z " fill="#7CB06F" transform="translate(139,153)"/>
<path d="M0 0 C6.68200315 4.13647814 10.9026498 9.8954494 13.375 17.3125 C13.375 22.5925 13.375 27.8725 13.375 33.3125 C26.575 33.3125 39.775 33.3125 53.375 33.3125 C53.375 27.7025 53.375 22.0925 53.375 16.3125 C56.1875 9.4921875 56.1875 9.4921875 58.375 6.3125 C59.875 7.625 59.875 7.625 61.375 9.3125 C61.375 12.3125 61.375 12.3125 60.375 15.3125 C62.025 15.6425 63.675 15.9725 65.375 16.3125 C65.87 14.8275 65.87 14.8275 66.375 13.3125 C67.365 13.8075 67.365 13.8075 68.375 14.3125 C68.045 30.4825 67.715 46.6525 67.375 63.3125 C66.715 63.3125 66.055 63.3125 65.375 63.3125 C65.08625 63.951875 64.7975 64.59125 64.5 65.25 C63.375 67.3125 63.375 67.3125 61.375 68.3125 C60.715 67.3225 60.055 66.3325 59.375 65.3125 C59.87 68.7775 59.87 68.7775 60.375 72.3125 C58.89 71.8175 58.89 71.8175 57.375 71.3125 C55.6875 67.75 55.6875 67.75 54.375 64.3125 C54.045 64.3125 53.715 64.3125 53.375 64.3125 C53.375 59.3625 53.375 54.4125 53.375 49.3125 C40.175 49.3125 26.975 49.3125 13.375 49.3125 C13.375 54.2625 13.375 59.2125 13.375 64.3125 C10.45967313 72.17504824 6.87834958 77.23950438 -0.46484375 81.33984375 C-6.83528904 84.16681027 -13.90281445 84.64148827 -20.48046875 82.29296875 C-24.55724904 80.345762 -27.08203594 79.12694609 -29.625 75.3125 C-27.645 75.6425 -25.665 75.9725 -23.625 76.3125 C-23.625 74.6625 -23.625 73.0125 -23.625 71.3125 C-24.945 71.3125 -26.265 71.3125 -27.625 71.3125 C-27.955 70.3225 -28.285 69.3325 -28.625 68.3125 C-27.965 68.3125 -27.305 68.3125 -26.625 68.3125 C-26.295 67.3225 -25.965 66.3325 -25.625 65.3125 C-23.6875 65.6875 -23.6875 65.6875 -21.625 66.3125 C-21.295 66.9725 -20.965 67.6325 -20.625 68.3125 C-18.645 67.8175 -18.645 67.8175 -16.625 67.3125 C-17.264375 66.714375 -17.90375 66.11625 -18.5625 65.5 C-22.39471405 61.43553055 -21.78583339 56.9340877 -21.79296875 51.6640625 C-21.79629715 50.81451996 -21.79962555 49.96497742 -21.80305481 49.08969116 C-21.80811658 47.29254701 -21.81046337 45.49539346 -21.81030273 43.69824219 C-21.81248614 40.95491963 -21.83064113 38.21200125 -21.84960938 35.46875 C-21.8525441 33.72135554 -21.85452837 31.97395917 -21.85546875 30.2265625 C-21.86265427 29.4087027 -21.86983978 28.5908429 -21.87724304 27.74819946 C-21.86020223 23.47918434 -21.60072534 20.20717977 -19.625 16.3125 C-21.275 16.3125 -22.925 16.3125 -24.625 16.3125 C-24.625 15.3225 -24.625 14.3325 -24.625 13.3125 C-24.99625 12.673125 -25.3675 12.03375 -25.75 11.375 C-26.625 9.3125 -26.625 9.3125 -25.875 7.1875 C-24.625 5.3125 -24.625 5.3125 -22.625 3.3125 C-23.945 2.9825 -25.265 2.6525 -26.625 2.3125 C-19.34116499 -3.3724444 -8.37183197 -3.90685492 0 0 Z " fill="#26363D" transform="translate(97.625,15.6875)"/>
<path d="M0 0 C1.47700882 -0.01441132 1.47700882 -0.01441132 2.9838562 -0.02911377 C4.04637604 -0.03336365 5.10889587 -0.03761353 6.20361328 -0.04199219 C7.84416183 -0.0505423 7.84416183 -0.0505423 9.51785278 -0.05926514 C11.83285555 -0.06871505 14.14787177 -0.07524908 16.46289062 -0.07910156 C20.00300562 -0.08880982 23.54254075 -0.11983502 27.08251953 -0.15136719 C29.331214 -0.15789704 31.57991262 -0.16314758 33.82861328 -0.16699219 C35.41632034 -0.18551239 35.41632034 -0.18551239 37.03610229 -0.20440674 C46.10467587 -0.17694325 46.10467587 -0.17694325 50.14892578 3.16113281 C49.20739259 7.93876031 47.0357333 11.21418269 43.14892578 14.16113281 C39.72295618 15.0940415 36.46767391 14.98222067 32.93798828 14.84472656 C32.07906982 14.837677 31.22015137 14.83062744 30.33520508 14.82336426 C27.14744 14.78692542 23.96061258 14.68919361 20.77392578 14.59863281 C13.63767578 14.45425781 6.50142578 14.30988281 -0.85107422 14.16113281 C-0.85107422 29.67113281 -0.85107422 45.18113281 -0.85107422 61.16113281 C14.65892578 61.16113281 30.16892578 61.16113281 46.14892578 61.16113281 C45.96330078 57.09800781 45.77767578 53.03488281 45.58642578 48.84863281 C45.28847877 34.36286049 45.28847877 34.36286049 50.39892578 28.22363281 C53.1411587 25.6113423 56.1224611 23.42938593 59.14892578 21.16113281 C59.22316376 27.33582945 59.27756991 33.51026542 59.3137207 39.68530273 C59.3287935 41.78528367 59.34925519 43.88523321 59.37524414 45.98510742 C59.41169332 49.00610105 59.42866737 52.02667792 59.44189453 55.04785156 C59.45737839 55.98449142 59.47286224 56.92113129 59.48881531 57.88615417 C59.49008175 62.80752816 59.38478775 66.17887387 56.14892578 70.16113281 C52.26305826 73.56126689 49.02486594 74.28464119 43.9465332 74.33813477 C42.35424141 74.35738762 42.35424141 74.35738762 40.7297821 74.37702942 C39.58290421 74.38441635 38.43602631 74.39180328 37.25439453 74.39941406 C36.07428299 74.40748581 34.89417145 74.41555756 33.67829895 74.4238739 C31.17918364 74.43771195 28.68004945 74.44843535 26.1809082 74.45629883 C22.36194019 74.47351777 18.54383639 74.51740893 14.72509766 74.56152344 C12.29736965 74.57164986 9.86963428 74.58016612 7.44189453 74.58691406 C5.73068672 74.61317619 5.73068672 74.61317619 3.98490906 74.63996887 C-2.08255434 74.62339461 -6.22161043 74.53550656 -10.85107422 70.16113281 C-13.4589068 66.48807016 -14.23455413 63.95691802 -14.28686523 59.47216797 C-14.30600479 58.3539566 -14.32514435 57.23574524 -14.34486389 56.08364868 C-14.34820236 54.88460907 -14.35154083 53.68556946 -14.35498047 52.45019531 C-14.36496567 51.2086972 -14.37495087 49.9671991 -14.38523865 48.68807983 C-14.40041537 46.063897 -14.40746458 43.43965637 -14.40698242 40.81542969 C-14.40673831 38.13219676 -14.42760447 35.45049673 -14.46850586 32.76757812 C-14.52353234 28.89047444 -14.53819371 25.01515076 -14.54248047 21.13769531 C-14.56403702 19.94270416 -14.58559357 18.74771301 -14.60780334 17.51651001 C-14.55461652 11.03653854 -14.08691071 7.03508034 -9.43223572 2.33383179 C-6.42383389 0.10259245 -3.60493838 0.02840679 0 0 Z " fill="#253339" transform="translate(71.85107421875,254.8388671875)"/>
<path d="M0 0 C0.96465179 -0.00960754 1.92930359 -0.01921509 2.92318726 -0.02911377 C3.96383331 -0.03336365 5.00447937 -0.03761353 6.07666016 -0.04199219 C7.14816315 -0.04769226 8.21966614 -0.05339233 9.32363892 -0.05926514 C11.59156303 -0.06871456 13.85950088 -0.07524889 16.12744141 -0.07910156 C19.59513303 -0.08880955 23.06223259 -0.11983502 26.52978516 -0.15136719 C28.73290664 -0.15789709 30.93603235 -0.16314761 33.13916016 -0.16699219 C34.17575775 -0.17933899 35.21235535 -0.19168579 36.28036499 -0.20440674 C45.49998945 -0.17591008 45.49998945 -0.17591008 49.24072266 3.16113281 C50.24072266 6.16113281 50.24072266 6.16113281 49.39254761 7.96131897 C47.19048247 10.78705245 45.49394341 12.82469199 41.95367432 13.77511597 C39.21487144 13.9711136 36.55471132 13.94915023 33.81103516 13.84472656 C32.9324585 13.837677 32.05388184 13.83062744 31.14868164 13.82336426 C27.88703864 13.78691739 24.62631211 13.68918566 21.36572266 13.59863281 C10.41384766 13.38207031 10.41384766 13.38207031 -0.75927734 13.16113281 C-0.75927734 29.00113281 -0.75927734 44.84113281 -0.75927734 61.16113281 C14.75072266 61.16113281 30.26072266 61.16113281 46.24072266 61.16113281 C46.01384766 57.11863281 45.78697266 53.07613281 45.55322266 48.91113281 C45.17561652 34.83592959 45.17561652 34.83592959 50.07739258 29.13867188 C52.34263353 26.96294767 54.70835822 25.01667912 57.24072266 23.16113281 C57.90072266 22.50113281 58.56072266 21.84113281 59.24072266 21.16113281 C59.31496064 27.33582945 59.36936679 33.51026542 59.40551758 39.68530273 C59.42059037 41.78528367 59.44105207 43.88523321 59.46704102 45.98510742 C59.50349019 49.00610105 59.52046425 52.02667792 59.53369141 55.04785156 C59.54917526 55.98449142 59.56465912 56.92113129 59.58061218 57.88615417 C59.58278993 66.348847 59.58278993 66.348847 56.24072266 70.16113281 C50.78520094 75.31626953 44.91765891 74.74211282 37.83447266 74.69238281 C36.63640991 74.69620972 35.43834717 74.70003662 34.20397949 74.70397949 C31.6756913 74.70669658 29.1473749 74.69934981 26.61914062 74.68261719 C22.75408117 74.66120681 18.89088069 74.68242806 15.02587891 74.70800781 C12.5662394 74.7053645 10.10660104 74.70023946 7.64697266 74.69238281 C6.49370483 74.70047974 5.34043701 74.70857666 4.15222168 74.71691895 C-1.92240712 74.64608637 -6.12763144 74.53775692 -10.75927734 70.16113281 C-13.3605244 66.49770703 -14.13643668 64.00630761 -14.14746094 59.53222656 C-14.15691742 58.42758057 -14.1663739 57.32293457 -14.17611694 56.18481445 C-14.17004425 55.00137451 -14.16397156 53.81793457 -14.15771484 52.59863281 C-14.16058502 51.3745874 -14.1634552 50.15054199 -14.16641235 48.8894043 C-14.168452 46.30386899 -14.16292914 43.71831821 -14.15039062 41.1328125 C-14.13433667 37.1757557 -14.15024384 33.21972035 -14.16943359 29.26269531 C-14.16745115 26.74967223 -14.16360744 24.23664977 -14.15771484 21.72363281 C-14.16378754 20.54019287 -14.16986023 19.35675293 -14.17611694 18.13745117 C-14.16666046 17.03280518 -14.15720398 15.92815918 -14.14746094 14.79003906 C-14.14507416 13.82138916 -14.14268738 12.85273926 -14.14022827 11.85473633 C-13.51536493 7.43649246 -11.16325464 3.99778056 -7.75927734 1.16113281 C-4.87136826 0.19849645 -3.0039921 0.02416681 0 0 Z " fill="#243238" transform="translate(71.75927734375,158.8388671875)"/>
<path d="M0 0 C1.04307312 -0.00990463 2.08614624 -0.01980927 3.16082764 -0.03001404 C4.29965393 -0.02551239 5.43848022 -0.02101074 6.61181641 -0.01637268 C7.81541809 -0.02323593 9.01901978 -0.03009918 10.25909424 -0.03717041 C13.55673217 -0.05233546 16.85380486 -0.0539328 20.15143585 -0.04822803 C22.90502272 -0.04513739 25.6585584 -0.05122711 28.41213799 -0.05726677 C34.90777725 -0.07131182 41.40328499 -0.06975055 47.89892578 -0.05836487 C54.59964775 -0.04687926 61.2999697 -0.0609664 68.00063896 -0.08776134 C73.75532793 -0.10991162 79.50989125 -0.11655741 85.26461983 -0.11068493 C88.70098578 -0.107313 92.1370952 -0.10974584 95.57342529 -0.12693596 C99.40409054 -0.14526273 103.23426284 -0.1312249 107.06494141 -0.11402893 C108.2037677 -0.1236969 109.34259399 -0.13336487 110.51593018 -0.14332581 C111.5590033 -0.13349167 112.60207642 -0.12365753 113.67675781 -0.11352539 C114.58229401 -0.11331611 115.4878302 -0.11310682 116.42080688 -0.1128912 C119.63993758 0.55364708 120.83723713 1.82580357 122.83837891 4.38768005 C123.33837891 7.88768005 123.33837891 7.88768005 122.83837891 11.38768005 C120.83723713 13.94955654 119.63993758 15.22171303 116.42080688 15.8882513 C115.51527069 15.88846059 114.6097345 15.88866987 113.67675781 15.8888855 C112.11214813 15.9036367 112.11214813 15.9036367 110.51593018 15.91868591 C109.37710388 15.90901794 108.23827759 15.89934998 107.06494141 15.88938904 C105.86133972 15.89479202 104.65773804 15.90019501 103.41766357 15.90576172 C100.11985259 15.91612592 96.82304491 15.90854724 93.52532196 15.8920505 C90.07319231 15.87819355 86.62109274 15.88466081 83.16894531 15.88818359 C77.37182209 15.89088522 71.57490597 15.87741439 65.77783203 15.85423279 C59.07715713 15.82762317 52.37682849 15.82587603 45.67611885 15.83762115 C39.22826841 15.84840331 32.78054314 15.84220848 26.33270264 15.82806587 C23.58954914 15.82230981 20.84648735 15.82238572 18.10333252 15.82713127 C14.27269404 15.83279302 10.44240153 15.81357578 6.61181641 15.79173279 C4.90357697 15.79848526 4.90357697 15.79848526 3.16082764 15.80537415 C2.11775452 15.79546951 1.0746814 15.78556488 0 15.77536011 C-1.35830429 15.77171526 -1.35830429 15.77171526 -2.74404907 15.76799679 C-5.65066571 15.31074673 -7.03421933 14.39063381 -9.16162109 12.38768005 C-9.69287109 10.23143005 -9.69287109 10.23143005 -9.66162109 7.88768005 C-9.67193359 7.11424255 -9.68224609 6.34080505 -9.69287109 5.54393005 C-8.50054593 0.70449261 -4.44971885 0.01194028 0 0 Z " fill="#243238" transform="translate(168.16162109375,173.61231994628906)"/>
<path d="M0 0 C1.03321381 -0.00990463 2.06642761 -0.01980927 3.13095093 -0.03001404 C4.82280769 -0.02326157 4.82280769 -0.02326157 6.54884338 -0.01637268 C7.74108521 -0.02323593 8.93332703 -0.03009918 10.16169739 -0.03717041 C13.42833341 -0.05233533 16.6946118 -0.05393241 19.96126819 -0.04822803 C22.68990768 -0.04513684 25.41849554 -0.05122786 28.14712769 -0.05726677 C34.58527585 -0.07131251 41.02329133 -0.06975053 47.46144104 -0.05836487 C54.09966054 -0.04688468 60.73747599 -0.06095712 67.37564224 -0.08776134 C73.07854284 -0.10992545 78.78131667 -0.11655413 84.48425728 -0.11068493 C87.88879799 -0.10731564 91.29307972 -0.10972803 94.69758415 -0.12693596 C98.49466522 -0.14178638 102.29085308 -0.13121111 106.08790588 -0.11402893 C107.21378616 -0.1236969 108.33966644 -0.13336487 109.49966431 -0.14332581 C117.07099701 -0.07145794 117.07099701 -0.07145794 121.08901978 2.20028687 C122.8830719 4.38768005 122.8830719 4.38768005 123.3830719 7.88768005 C122.85862852 11.55878373 122.43597626 12.80113579 119.8830719 15.38768005 C117.55451965 15.8882513 117.55451965 15.8882513 114.75904846 15.8888855 C113.69907654 15.89871964 112.63910461 15.90855377 111.54701233 15.91868591 C110.38431824 15.90901794 109.22162415 15.89934998 108.0236969 15.88938904 C106.18684326 15.89749352 106.18684326 15.89749352 104.31288147 15.90576172 C100.95310462 15.91613724 97.59431004 15.90853395 94.23461914 15.8920505 C90.72062263 15.87821104 87.20665613 15.88465881 83.69264221 15.88818359 C77.79119114 15.89088661 71.88994335 15.87740248 65.98854065 15.85423279 C59.16346846 15.8276223 52.3387362 15.82587551 45.51362991 15.83762115 C38.95098263 15.84839651 32.38845843 15.84221383 25.82582092 15.82806587 C23.03160191 15.82230391 20.23747291 15.82239036 17.44325256 15.82713127 C13.54285292 15.83278504 9.64279411 15.81359277 5.7424469 15.79173279 C3.99840576 15.79848526 3.99840576 15.79848526 2.21913147 15.80537415 C1.15915955 15.79546951 0.09918762 15.78556488 -0.99290466 15.77536011 C-2.3766629 15.77171526 -2.3766629 15.77171526 -3.78837585 15.76799679 C-6.56247804 15.31490947 -7.44973882 14.61253969 -9.1169281 12.38768005 C-9.55052185 10.23143005 -9.55052185 10.23143005 -9.5544281 7.88768005 C-9.57376404 7.11424255 -9.59309998 6.34080505 -9.61302185 5.54393005 C-9.1169281 3.38768005 -9.1169281 3.38768005 -7.40573025 1.77714443 C-4.69487234 0.13146243 -3.15268067 0.00854164 0 0 Z " fill="#253339" transform="translate(168.11692810058594,268.61231994628906)"/>
<path d="M0 0 C14.52 0 29.04 0 44 0 C40.23353629 5.02195161 36.45917211 10.03063494 32.625 15 C31.95017578 15.87591797 31.95017578 15.87591797 31.26171875 16.76953125 C30.17493451 18.18003846 29.08753579 19.59007218 28 21 C27.55269531 20.61328125 27.10539062 20.2265625 26.64453125 19.828125 C25.3899005 18.74737698 24.13053403 17.67210916 22.8671875 16.6015625 C21.36107861 15.30971178 19.892808 13.97382205 18.4375 12.625 C15.3604842 10.57365613 13.62953365 10.44767966 10 11 C7.96117905 11.87129307 7.96117905 11.87129307 7 14 C6.21376391 17.44734287 5.95890159 18.73899335 7 22 C9.95185413 25.77083162 13.41798695 28.83819449 17 32 C17.72574219 32.72316406 18.45148438 33.44632812 19.19921875 34.19140625 C22.22035534 37.12944674 24.37384161 38.80646013 28.4375 40.0625 C36.49826446 37.65841235 41.37277377 28.6516377 46 22 C46.33 22 46.66 22 47 22 C47 30.25 47 38.5 47 47 C31.49 47 15.98 47 0 47 C0 31.49 0 15.98 0 0 Z " fill="#F7F7F5" transform="translate(71,269)"/>
<path d="M0 0 C0.81491913 -0.00525696 1.62983826 -0.01051392 2.4694519 -0.01593018 C5.16602689 -0.02914542 7.86201265 -0.02038684 10.55859375 -0.01025391 C12.43042108 -0.01227421 14.30224764 -0.01518528 16.17407227 -0.01895142 C20.09822072 -0.02337683 24.0221644 -0.01693673 27.94628906 -0.00292969 C32.98049722 0.01416233 38.01422559 0.0043223 43.04841614 -0.01364708 C46.91397731 -0.02447905 50.77942443 -0.02104128 54.64498901 -0.0132637 C56.50137387 -0.01126007 58.35776902 -0.01372668 60.21414185 -0.02070236 C62.80710344 -0.02830722 65.39928418 -0.01672655 67.9921875 0 C68.76215057 -0.00607269 69.53211365 -0.01214539 70.32540894 -0.0184021 C75.46346432 0.04311308 75.46346432 0.04311308 77.96899414 1.66635132 C79.74937483 4.65098583 79.80096951 8.08629168 78.99609375 11.38818359 C77.45996094 13.48303223 77.45996094 13.48303223 74.99609375 15.38818359 C72.22393576 15.7829187 69.84864324 15.93582849 67.078125 15.90576172 C65.88719742 15.91627563 65.88719742 15.91627563 64.67221069 15.92700195 C62.05064811 15.94459145 59.4301671 15.93295633 56.80859375 15.91943359 C54.98543084 15.92212825 53.16226932 15.92601044 51.33911133 15.93103027 C47.51922922 15.9369266 43.6997214 15.92835813 39.87988281 15.90966797 C34.98354806 15.88687823 30.0880903 15.90000061 25.19178772 15.92395782 C21.42738233 15.93841224 17.66318485 15.93381148 13.89877319 15.92344666 C12.09345394 15.92077838 10.28811581 15.92405269 8.4828186 15.93336487 C5.95939133 15.94352477 3.43738401 15.92803846 0.9140625 15.90576172 C-0.20508041 15.9179071 -0.20508041 15.9179071 -1.34683228 15.93029785 C-4.82898901 15.87334918 -6.67566743 15.64198974 -9.46777344 13.48303223 C-12.04889361 9.96311778 -11.47945027 7.66807976 -11.00390625 3.38818359 C-8.53710336 -0.74717076 -4.29671801 -0.03388818 0 0 Z " fill="#223036" transform="translate(170.00390625,209.61181640625)"/>
<path d="M0 0 C0.79395172 -0.00686325 1.58790344 -0.0137265 2.40591431 -0.02079773 C5.02730244 -0.039082 7.6480931 -0.03522642 10.26953125 -0.02954102 C12.09269404 -0.03410169 13.91585511 -0.03940692 15.73901367 -0.04542542 C19.55882759 -0.05435943 23.37843246 -0.05192968 27.19824219 -0.04199219 C32.09454559 -0.03049565 36.99012854 -0.05072282 41.88633728 -0.07990932 C45.65072211 -0.09824919 49.41493352 -0.09798342 53.17935181 -0.0922718 C54.98468029 -0.09211835 56.79002036 -0.09818239 58.5953064 -0.11056328 C61.11868609 -0.1254319 63.64072495 -0.11482802 66.1640625 -0.09765625 C66.91015778 -0.10732422 67.65625305 -0.11699219 68.42495728 -0.12695312 C71.8451928 -0.07818394 73.75759742 0.16535105 76.5456543 2.21665955 C78.79698547 5.42195787 78.62766721 7.58460101 78.08203125 11.40405273 C76.55238342 13.59144592 76.55238342 13.59144592 74.08203125 15.40405273 C71.27478487 15.79360776 68.8613076 15.94158362 66.05639648 15.90576172 C65.2510849 15.9111647 64.44577332 15.91656769 63.61605835 15.9221344 C60.95720543 15.93463027 58.29943341 15.91812698 55.640625 15.90014648 C53.79264774 15.90030144 51.94467014 15.90178981 50.09669495 15.90455627 C46.22553119 15.9059406 42.35473779 15.89337549 38.48364258 15.87060547 C33.51782051 15.84220084 28.55261295 15.84496307 23.58674526 15.85769558 C19.77178178 15.86464463 15.95696075 15.85687268 12.14201546 15.84443855 C10.31075651 15.83991792 8.47948231 15.83959258 6.64822197 15.84350395 C4.09125183 15.84640912 1.53513401 15.82994379 -1.02172852 15.80810547 C-1.78076981 15.81260712 -2.5398111 15.81710876 -3.32185364 15.82174683 C-8.42996454 15.74912928 -8.42996454 15.74912928 -10.88438416 14.01356506 C-12.24743404 11.89100479 -12.35128154 10.41638113 -12.35546875 7.90405273 C-12.37480469 7.13061523 -12.39414063 6.35717773 -12.4140625 5.56030273 C-11.91796875 3.40405273 -11.91796875 3.40405273 -10.38183594 1.79454041 C-6.97090048 -0.13042687 -3.81343214 -0.02300876 0 0 Z " fill="#243238" transform="translate(170.91796875,304.595947265625)"/>
<path d="M0 0 C14.19 0 28.38 0 43 0 C40.38199803 4.36333662 37.65166436 8.29699987 34.5625 12.3125 C34.08490234 12.95767578 33.60730469 13.60285156 33.11523438 14.26757812 C31.69140625 16.11328125 31.69140625 16.11328125 29 19 C23.45912805 19 21.61367175 16.34400459 17.6328125 12.75 C14.46899857 10.6470495 12.72793637 10.5834708 9 11 C6.96117905 11.87129307 6.96117905 11.87129307 6 14 C5.21376391 17.44734287 4.95890159 18.73899335 6 22 C8.95185413 25.77083162 12.41798695 28.83819449 16 32 C16.72574219 32.72316406 17.45148438 33.44632813 18.19921875 34.19140625 C21.26134154 37.16930562 23.34819535 38.8137701 27.5 40 C35.02436704 37.85018085 39.48452689 29.56522536 43.87109375 23.43359375 C44.24363281 22.96050781 44.61617187 22.48742187 45 22 C45.33 22 45.66 22 46 22 C46 30.25 46 38.5 46 47 C30.82 47 15.64 47 0 47 C0 31.49 0 15.98 0 0 Z " fill="#F7F7F4" transform="translate(72,173)"/>
<path d="M0 0 C2.75578079 2.03897121 4.70413298 3.67517841 5.47306824 7.11828613 C5.66208529 9.73669561 5.69291241 12.31235888 5.6640625 14.9375 C5.66884613 15.89519287 5.67362976 16.85288574 5.67855835 17.83959961 C5.68195401 19.86020555 5.67277495 21.88086668 5.65185547 23.90136719 C5.6250851 26.99018111 5.65161452 30.0753613 5.68359375 33.1640625 C5.68028959 35.13021634 5.67388324 37.09636791 5.6640625 39.0625 C5.67418365 39.98345459 5.68430481 40.90440918 5.69473267 41.85327148 C5.61164366 46.41026541 5.48099697 48.38151932 2.60327148 52.08178711 C-0.85005137 54.62635784 -2.76696587 54.66109006 -6.91015625 54.43359375 C-9.92686488 53.80769719 -11.25075932 52.47809096 -13 50 C-14.67044731 46.65910537 -14.16315302 42.90426109 -14.16796875 39.23046875 C-14.17296135 37.92073845 -14.17296135 37.92073845 -14.17805481 36.58454895 C-14.18312323 34.73434985 -14.18546316 32.88414159 -14.18530273 31.03393555 C-14.18748316 28.20931806 -14.20562289 25.3850949 -14.22460938 22.56054688 C-14.22754456 20.76302217 -14.22952852 18.96549561 -14.23046875 17.16796875 C-14.23765427 16.32509811 -14.24483978 15.48222748 -14.25224304 14.61381531 C-14.23210479 9.41666425 -13.99962657 5.23035271 -10.375 1.1875 C-7.0012032 -0.4993984 -3.61803614 -1.02409961 0 0 Z " fill="#609DC4" transform="translate(180,29)"/>
<path d="M0 0 C2.75329021 1.79562405 4.52627461 3.05254922 6 6 C6.10380502 7.33143136 6.14858373 8.66776098 6.16113281 10.00317383 C6.17074036 10.82775589 6.1803479 11.65233795 6.19024658 12.50190735 C6.19449646 13.39459824 6.19874634 14.28728912 6.203125 15.20703125 C6.20882507 16.12457687 6.21452515 17.0421225 6.22039795 17.98747253 C6.22985433 19.93182215 6.23638446 21.87618784 6.24023438 23.82055664 C6.24992709 26.79016254 6.28093903 29.75907263 6.3125 32.72851562 C6.31903134 34.61718339 6.32428129 36.5058561 6.328125 38.39453125 C6.3404718 39.28114944 6.3528186 40.16776764 6.36553955 41.08125305 C6.34832301 45.86591928 6.15935257 49.13637909 3 53 C0.72751762 54.13624119 -0.78302764 54.26446843 -3.3125 54.375 C-4.07175781 54.42398438 -4.83101563 54.47296875 -5.61328125 54.5234375 C-9.35562645 53.70269404 -10.66452625 52.00438779 -13 49 C-13.72499418 45.75792326 -13.67773383 42.59240178 -13.62890625 39.28125 C-13.63131821 38.34575317 -13.63373016 37.41025635 -13.63621521 36.44641113 C-13.63523778 34.47285717 -13.6218689 32.49927545 -13.59692383 30.52587891 C-13.5626114 27.50979213 -13.57627096 24.49663588 -13.59570312 21.48046875 C-13.58880441 19.5598834 -13.5791318 17.63930559 -13.56640625 15.71875 C-13.57136612 14.81966919 -13.57632599 13.92058838 -13.58143616 12.9942627 C-13.5030075 8.81253134 -13.35706834 6.56911902 -11.08959961 2.95507812 C-7.47662656 -0.42530372 -4.89730105 -0.41502551 0 0 Z " fill="#5C9BC3" transform="translate(269,29)"/>
<path d="M0 0 C4.6 2.2 4.6 2.2 6 5 C6.10400279 6.36208172 6.14860275 7.72898161 6.16113281 9.0949707 C6.17074036 9.93957352 6.1803479 10.78417633 6.19024658 11.65437317 C6.19449646 12.56893784 6.19874634 13.4835025 6.203125 14.42578125 C6.20882507 15.36552292 6.21452515 16.30526459 6.22039795 17.27348328 C6.22985474 19.26491162 6.23638462 21.25635566 6.24023438 23.24780273 C6.24992776 26.28983013 6.28093972 29.33117849 6.3125 32.37304688 C6.31903125 34.30728765 6.32428124 36.24153327 6.328125 38.17578125 C6.3404718 39.08427322 6.3528186 39.9927652 6.36553955 40.92878723 C6.34856856 45.75842861 6.20522397 49.10759396 3 53 C-0.45031261 54.72515631 -4.22716304 54.49677924 -8 54 C-11.03215675 51.80168636 -11.81654398 50.55036806 -13 47 C-13.10932546 44.1090305 -13.16405401 41.24290966 -13.16796875 38.3515625 C-13.17129715 37.50201996 -13.17462555 36.65247742 -13.17805481 35.77719116 C-13.18311658 33.98004701 -13.18546337 32.18289346 -13.18530273 30.38574219 C-13.18748614 27.64241963 -13.20564113 24.89950125 -13.22460938 22.15625 C-13.2275441 20.40885554 -13.22952837 18.66145917 -13.23046875 16.9140625 C-13.23765427 16.0962027 -13.24483978 15.2783429 -13.25224304 14.43569946 C-13.23171194 9.29230594 -12.98109399 5.12784169 -9.3125 1.1875 C-6.02255279 -0.50193235 -3.65169302 -0.38438874 0 0 Z " fill="#609DC2" transform="translate(89,29)"/>
<path d="M0 0 C2.75329021 1.79562405 4.52627461 3.05254922 6 6 C6.08902493 7.35845193 6.11760132 8.72115974 6.11352539 10.08251953 C6.11344986 10.92324005 6.11337433 11.76396057 6.11329651 12.63015747 C6.10555458 13.99272171 6.10555458 13.99272171 6.09765625 15.3828125 C6.0962413 16.31221649 6.09482635 17.24162048 6.09336853 18.19918823 C6.08776053 21.17449124 6.07520668 24.14971964 6.0625 27.125 C6.05748603 29.13932183 6.05292295 31.15364484 6.04882812 33.16796875 C6.0377885 38.11200802 6.02051849 43.05599135 6 48 C3.90667862 44.17884443 3.76754017 41.4302604 3.8046875 37.046875 C3.8075174 36.38665344 3.81034729 35.72643188 3.81326294 35.04620361 C3.82441585 32.94728103 3.84951054 30.84879258 3.875 28.75 C3.88503616 27.32292285 3.8941609 25.89583898 3.90234375 24.46875 C3.92433889 20.97902672 3.95883464 17.48955577 4 14 C2.68 13.67 1.36 13.34 0 13 C-0.33 13.99 -0.66 14.98 -1 16 C-1.33 16.33 -1.66 16.66 -2 17 C-2.99 17 -3.98 17 -5 17 C-5.33 18.65 -5.66 20.3 -6 22 C-6.66 21.67 -7.32 21.34 -8 21 C-8 21.99 -8 22.98 -8 24 C-8.66 24 -9.32 24 -10 24 C-9.67 24.99 -9.34 25.98 -9 27 C-9.66 27 -10.32 27 -11 27 C-11.33292585 22.75519536 -11.43885872 20.64457375 -9 17.0625 C-8.34 16.381875 -7.68 15.70125 -7 15 C-7.66 15 -8.32 15 -9 15 C-8.34 13.02 -7.68 11.04 -7 9 C-6.34 9 -5.68 9 -5 9 C-5.33 7.68 -5.66 6.36 -6 5 C-6.33 5.99 -6.66 6.98 -7 8 C-8.65 8.33 -10.3 8.66 -12 9 C-12 21.54 -12 34.08 -12 47 C-12.33 47 -12.66 47 -13 47 C-13.09902133 41.25257371 -13.17154082 35.50564608 -13.21972656 29.75756836 C-13.23981774 27.80305327 -13.26709589 25.8485981 -13.30175781 23.89428711 C-13.35038601 21.08171792 -13.3729936 18.26994473 -13.390625 15.45703125 C-13.41127014 14.58601273 -13.43191528 13.7149942 -13.45318604 12.81758118 C-13.45471126 8.67554216 -13.35028384 6.55851813 -11.10058594 2.97143555 C-7.48320942 -0.4235337 -4.91099969 -0.41618641 0 0 Z " fill="#649DC1" transform="translate(269,29)"/>
<path d="M0 0 C7.15482549 3.20043807 10.82122573 9.76466567 14.09765625 16.62109375 C15.19757962 19.52089173 15.40415231 21.92844243 15 25 C13.66666667 22.33333333 12.33333333 19.66666667 11 17 C10.34 19.31 9.68 21.62 9 24 C7.02 24 5.04 24 3 24 C1.49393485 27.01213029 1.87839669 30.11282622 1.90234375 33.4140625 C1.90446617 34.50852188 1.90446617 34.50852188 1.90663147 35.62509155 C1.91223469 37.95843585 1.92478765 40.29168464 1.9375 42.625 C1.94251459 44.20572778 1.94707757 45.78645707 1.95117188 47.3671875 C1.96220516 51.24482854 1.97947189 55.12239807 2 59 C1.67 59 1.34 59 1 59 C0.98598145 57.6699292 0.98598145 57.6699292 0.97167969 56.31298828 C0.92727759 52.97630147 0.86549612 49.64082529 0.79248047 46.3046875 C0.76451136 44.86958271 0.74317897 43.43433076 0.72900391 41.99902344 C0.62562778 32.11626618 0.28675352 22.92976654 -6.5 15.125 C-7.325 14.42375 -8.15 13.7225 -9 13 C-10.33333333 11.66666667 -11.66666667 10.33333333 -13 9 C-11.8553125 9.2784375 -11.8553125 9.2784375 -10.6875 9.5625 C-7.91032625 10.22819173 -7.91032625 10.22819173 -5 9 C-4.67 9.99 -4.34 10.98 -4 12 C-3.6596875 10.824375 -3.6596875 10.824375 -3.3125 9.625 C-2 7 -2 7 0.625 5.6875 C1.40875 5.460625 2.1925 5.23375 3 5 C2.505 4.54625 2.01 4.0925 1.5 3.625 C0 2 0 2 0 0 Z " fill="#213037" transform="translate(321,57)"/>
<path d="M0 0 C3.21605752 2.37708599 4.73163575 3.90214626 5.6875 7.8125 C4.67868993 12.4897103 2.04803177 15.40232316 -1 19 C-1.49886719 19.6084375 -1.99773437 20.216875 -2.51171875 20.84375 C-3.66117529 22.24022442 -4.82859912 23.62188132 -6 25 C-6.66 24.67 -7.32 24.34 -8 24 C-7.34 22.02 -6.68 20.04 -6 18 C-6.5775 17.7525 -7.155 17.505 -7.75 17.25 C-10.3002997 15.83316683 -12.01785701 14.12372463 -14 12 C-13.178129 7.80845793 -12.45923099 4.98609263 -9.25 2.0625 C-5.63670559 -0.23055222 -4.17180468 -0.88761802 0 0 Z " fill="#78AF69" transform="translate(139,153)"/>
<path d="M0 0 C0.99 0.99 0.99 0.99 2 2 C-0.22888806 4.53057365 -2.10275058 5.87198999 -5.47417641 6.3529892 C-8.70102038 6.45284193 -11.90623179 6.42832828 -15.1340332 6.36230469 C-16.36371323 6.35313522 -17.59339325 6.34396576 -18.8603363 6.33451843 C-22.22407999 6.30549285 -25.5866753 6.25857332 -28.95003533 6.20364666 C-32.46794377 6.15044185 -35.98604826 6.12017648 -39.50419617 6.08746338 C-46.16248896 6.0220733 -52.82034984 5.9360951 -59.47830218 5.84269357 C-67.05972949 5.73734146 -74.64135222 5.65498023 -82.22307837 5.5745368 C-97.81574382 5.40858143 -113.40791271 5.21379718 -129 5 C-129.33 4.34 -129.66 3.68 -130 3 C-129.34824138 2.99668985 -128.69648275 2.99337971 -128.02497387 2.98996925 C-112.17630319 2.9087975 -96.32773919 2.81672433 -80.47920513 2.71247292 C-72.81501454 2.66232171 -65.15083478 2.61587913 -57.48657227 2.578125 C-50.80747328 2.54521442 -44.12845774 2.50538847 -37.44945079 2.45720994 C-33.9119949 2.43193556 -30.37459442 2.41015713 -26.83707237 2.39665604 C-22.89087409 2.38146578 -18.94487898 2.35083838 -14.9987793 2.31884766 C-13.82202133 2.31668747 -12.64526337 2.31452728 -11.43284607 2.31230164 C-9.82376373 2.29555641 -9.82376373 2.29555641 -8.18217468 2.2784729 C-7.24839839 2.27294214 -6.3146221 2.26741138 -5.35254955 2.26171303 C-2.73101155 2.15239398 -2.73101155 2.15239398 0 0 Z " fill="#D0D3D4" transform="translate(291,281)"/>
<path d="M0 0 C3.9375 0.5625 3.9375 0.5625 6.5 2 C8.32881402 5.26005978 8.57431574 7.23151378 8.0234375 10.91015625 C5.60815399 16.80935591 0.43105433 21.17837774 -4.0625 25.5625 C-4.7225 26.2225 -5.3825 26.8825 -6.0625 27.5625 C-5.46322174 24.20654172 -4.21627564 22.18448774 -2.0625 19.5625 C-3.99504772 17.5379262 -5.69408688 16.14144208 -8.0625 14.5625 C-7.7325 13.2425 -7.4025 11.9225 -7.0625 10.5625 C-7.7225 10.2325 -8.3825 9.9025 -9.0625 9.5625 C-9.0625 5.5625 -9.0625 5.5625 -7.0625 2.8125 C-4.13807924 0.61918443 -3.42527304 0.17286425 0 0 Z " fill="#78B169" transform="translate(136.0625,248.4375)"/>
<path d="M0 0 C0.99 0 1.98 0 3 0 C3.061875 1.093125 3.12375 2.18625 3.1875 3.3125 C3.5938773 7.13579798 3.5938773 7.13579798 6.5 8.75 C7.325 9.1625 8.15 9.575 9 10 C9.33 10.99 9.66 11.98 10 13 C9.38125 13.556875 8.7625 14.11375 8.125 14.6875 C5.90181335 16.81037029 5.90181335 16.81037029 5.15625 19.3125 C3.73859072 22.60759996 1.81694856 24.69612654 -0.625 27.3125 C-1.44226563 28.19550781 -2.25953125 29.07851563 -3.1015625 29.98828125 C-3.72804688 30.65214844 -4.35453125 31.31601562 -5 32 C-5.33 31.34 -5.66 30.68 -6 30 C-6.99 30 -7.98 30 -9 30 C-9 29.34 -9 28.68 -9 28 C-8.21625 28.04125 -7.4325 28.0825 -6.625 28.125 C-3.83883881 28.28728734 -3.83883881 28.28728734 -2 26 C-2 24.68 -2 23.36 -2 22 C-0.68 21.34 0.64 20.68 2 20 C1.01 20 0.02 20 -1 20 C-2.33981486 19.6937566 -3.67511887 19.36548445 -5 19 C-5.33 16.36 -5.66 13.72 -6 11 C-6.99 11.495 -6.99 11.495 -8 12 C-6.50079488 8.88626628 -4.91847864 5.87771795 -3 3 C-2.34 3 -1.68 3 -1 3 C-0.67 2.01 -0.34 1.02 0 0 Z " fill="#7CB46B" transform="translate(125,256)"/>
<path d="M0 0 C4.29 0.33 8.58 0.66 13 1 C13 1.66 13 2.32 13 3 C14.65 3.33 16.3 3.66 18 4 C17.01 4.495 17.01 4.495 16 5 C16 6.65 16 8.3 16 10 C15.43410156 10.12117188 14.86820313 10.24234375 14.28515625 10.3671875 C13.55167969 10.53476562 12.81820312 10.70234375 12.0625 10.875 C10.96615234 11.11863281 10.96615234 11.11863281 9.84765625 11.3671875 C7.79299706 11.82961523 7.79299706 11.82961523 7 14 C6.84101146 15.91500303 6.84101146 15.91500303 6.875 18 C6.87242188 18.70125 6.86984375 19.4025 6.8671875 20.125 C6.88622764 22.09153775 6.88622764 22.09153775 8 24 C7.34 24.66 6.68 25.32 6 26 C4.23537317 22.91190305 4 21.76687864 4 18 C1.70825923 21.43761116 1.70475953 22.92071615 1.5859375 26.98046875 C1.54726562 28.14384766 1.50859375 29.30722656 1.46875 30.50585938 C1.4378125 31.72080078 1.406875 32.93574219 1.375 34.1875 C1.33632812 35.41404297 1.29765625 36.64058594 1.2578125 37.90429688 C1.16343897 40.93604656 1.07785451 43.96778841 1 47 C0.67 47 0.34 47 0 47 C0 31.49 0 15.98 0 0 Z " fill="#DFE2DE" transform="translate(71,269)"/>
<path d="M0 0 C0.33 0 0.66 0 1 0 C1 7.59 1 15.18 1 23 C15.19 23 29.38 23 44 23 C43.67 19.7 43.34 16.4 43 13 C42.01 12.67 41.02 12.34 40 12 C40.33 11.01 40.66 10.02 41 9 C41.66 9 42.32 9 43 9 C43.66 7.02 44.32 5.04 45 3 C45.33 3 45.66 3 46 3 C46 10.26 46 17.52 46 25 C30.82 25 15.64 25 0 25 C0 16.75 0 8.5 0 0 Z " fill="#F9FCFC" transform="translate(72,195)"/>
<path d="M0 0 C27.06 0.33 54.12 0.66 82 1 C82 1.33 82 1.66 82 2 C44.38 2.495 44.38 2.495 6 3 C6 6.3 6 9.6 6 13 C3.125 13.1875 3.125 13.1875 0 13 C-2.32536063 9.51195905 -2.33457898 8.09859246 -2 4 C-1.34 2.68 -0.68 1.36 0 0 Z " fill="#344045" transform="translate(162,210)"/>
<path d="M0 0 C0.33 0 0.66 0 1 0 C1 6.27 1 12.54 1 19 C-12.2 19 -25.4 19 -39 19 C-39 13.72 -39 8.44 -39 3 C-37 6 -37 6 -37 17 C-25.12 17 -13.24 17 -1 17 C-1 12.38 -1 7.76 -1 3 C-0.67 2.01 -0.34 1.02 0 0 Z " fill="#DDDEDF" transform="translate(150,30)"/>
<path d="M0 0 C0.99120346 -0.00960754 1.98240692 -0.01921509 3.00364685 -0.02911377 C4.07760208 -0.03336365 5.15155731 -0.03761353 6.25805664 -0.04199219 C7.35791397 -0.04769226 8.4577713 -0.05339233 9.59095764 -0.05926514 C11.92032913 -0.06872275 14.24971405 -0.07525213 16.57910156 -0.07910156 C20.15005687 -0.08881779 23.72043938 -0.11983894 27.29125977 -0.15136719 C29.55102196 -0.15789595 31.81078829 -0.16314692 34.07055664 -0.16699219 C35.14248764 -0.17933899 36.21441864 -0.19168579 37.3188324 -0.20440674 C38.31318802 -0.20140564 39.30754364 -0.19840454 40.33203125 -0.1953125 C41.64535683 -0.20078094 41.64535683 -0.20078094 42.98521423 -0.20635986 C45.23071289 0.16113281 45.23071289 0.16113281 48.23071289 3.16113281 C30.08071289 3.16113281 11.93071289 3.16113281 -6.76928711 3.16113281 C-6.76928711 2.50113281 -6.76928711 1.84113281 -6.76928711 1.16113281 C-4.32932353 -0.05884897 -2.72747563 0.02128964 0 0 Z " fill="#131D23" transform="translate(71.769287109375,254.8388671875)"/>
<path d="M0 0 C0.33 0.66 0.66 1.32 1 2 C-1.31 2 -3.62 2 -6 2 C-6 3.65 -6 5.3 -6 7 C-7.98 7.66 -9.96 8.32 -12 9 C-12 21.54 -12 34.08 -12 47 C-12.33 47 -12.66 47 -13 47 C-13.09902133 41.25257371 -13.17154082 35.50564608 -13.21972656 29.75756836 C-13.23981774 27.80305327 -13.26709589 25.8485981 -13.30175781 23.89428711 C-13.35038601 21.08171792 -13.3729936 18.26994473 -13.390625 15.45703125 C-13.41127014 14.58601273 -13.43191528 13.7149942 -13.45318604 12.81758118 C-13.45471126 8.67554216 -13.35028384 6.55851813 -11.10058594 2.97143555 C-7.45559886 -0.44944668 -4.9016477 -0.09077125 0 0 Z " fill="#77ACCE" transform="translate(269,29)"/>
<path d="M0 0 C0.609375 1.83984375 0.609375 1.83984375 1 4 C-0.67854606 6.45787102 -2.44018266 8.48324553 -4.625 10.5 C-6.19649708 11.99583225 -6.19649708 11.99583225 -6.75 14.5 C-8 17 -8 17 -11.1875 18.8125 C-15.18888341 20.05883254 -17.85231745 20.61447149 -22 20 C-25.49529336 17.26455302 -27.13587693 15.30222975 -28 11 C-27.36384766 11.6496875 -27.36384766 11.6496875 -26.71484375 12.3125 C-23.75867648 15.11923464 -21.57928337 16.82836048 -17.625 18 C-9.59206164 15.784017 -4.49252473 6.66632702 0 0 Z " fill="#EDFAEB" transform="translate(117,291)"/>
<path d="M0 0 C0.33 0 0.66 0 1 0 C1 9.9 1 19.8 1 30 C0.01 29.67 -0.98 29.34 -2 29 C-1.67 28.01 -1.34 27.02 -1 26 C-2.32 26.33 -3.64 26.66 -5 27 C-4.37054632 22.34204276 -4.37054632 22.34204276 -2.375 20.5 C-1.92125 20.005 -1.4675 19.51 -1 19 C-1.23870425 16.38901957 -1.23870425 16.38901957 -2 14 C-2 13.67 -2 13.34 -2 13 C-2.66 13 -3.32 13 -4 13 C-4 11.68 -4 10.36 -4 9 C-4.66 8.67 -5.32 8.34 -6 8 C-4.35 7.67 -2.7 7.34 -1 7 C-0.67 4.69 -0.34 2.38 0 0 Z " fill="#5999BD" transform="translate(93,41)"/>
<path d="M0 0 C0.66 1.32 1.32 2.64 2 4 C-1.3 7.96 -4.6 11.92 -8 16 C-12.41611524 14.2335539 -14.08995952 13.44893687 -17 10 C-17 9.34 -17 8.68 -17 8 C-15.9275 8.20625 -14.855 8.4125 -13.75 8.625 C-10.12380904 8.9876191 -8.91708924 8.98362069 -6 7 C-6 7.66 -6 8.32 -6 9 C-5.34 9 -4.68 9 -4 9 C-4 8.01 -4 7.02 -4 6 C-3.34 5.67 -2.68 5.34 -2 5 C-1.27840576 3.35636866 -0.60648579 1.68949614 0 0 Z " fill="#F0F9ED" transform="translate(108,177)"/>
<path d="M0 0 C0.99 0.33 1.98 0.66 3 1 C2.34 1 1.68 1 1 1 C1 4.96 1 8.92 1 13 C1.99 12.01 2.98 11.02 4 10 C4.66 10.33 5.32 10.66 6 11 C5.34 13.64 4.68 16.28 4 19 C3.34 19 2.68 19 2 19 C1.67 27.25 1.34 35.5 1 44 C0.67 44 0.34 44 0 44 C-0.84278122 29.23890664 -1.06066736 14.75143531 0 0 Z " fill="#F2F1F1" transform="translate(73,174)"/>
<path d="M0 0 C0.66 0.33 1.32 0.66 2 1 C2 5.95 2 10.9 2 16 C-18.295 15.505 -18.295 15.505 -39 15 C-39 14.67 -39 14.34 -39 14 C-26.13 14 -13.26 14 0 14 C0 9.38 0 4.76 0 0 Z " fill="#FAFDFD" transform="translate(116,300)"/>
<path d="M0 0 C1 3 1 3 -0.3125 6.125 C-2 9 -2 9 -4 10 C-5.21516636 11.82274953 -6.39331792 13.6719181 -7.5 15.5625 C-11.1436999 19.11510741 -15.07459363 19.37022476 -20 20 C-20 19.34 -20 18.68 -20 18 C-18.44732422 17.70416016 -18.44732422 17.70416016 -16.86328125 17.40234375 C-12.24363613 16.07961988 -10.05269118 13.26017268 -7.1875 9.5625 C-6.71119141 8.97662109 -6.23488281 8.39074219 -5.74414062 7.78710938 C-3.70452563 5.25982272 -1.80197911 2.70296867 0 0 Z " fill="#EAF9E6" transform="translate(117,195)"/>
<path d="M0 0 C0.66 0 1.32 0 2 0 C2 0.66 2 1.32 2 2 C2.99 2 3.98 2 5 2 C4.67 2.66 4.34 3.32 4 4 C3.34 3.67 2.68 3.34 2 3 C2 5.31 2 7.62 2 10 C2.66 9.67 3.32 9.34 4 9 C3.34 11.97 2.68 14.94 2 18 C1.34 17.34 0.68 16.68 0 16 C-1.65 18.64 -3.3 21.28 -5 24 C-5 20.81207778 -4.49934214 19.80835135 -3.0625 17.0625 C-0.47399 11.51961286 -0.20460797 6.04616561 0 0 Z " fill="#6FA4C4" transform="translate(111,68)"/>
<path d="M0 0 C3.28878463 -0.57553731 5.30671092 -0.48569405 8.07421875 1.453125 C10.11368344 3.24755234 12.07518475 5.08339292 14 7 C14.86044922 7.85658203 14.86044922 7.85658203 15.73828125 8.73046875 C16.15464844 9.14941406 16.57101563 9.56835938 17 10 C18.98 8.35 20.96 6.7 23 5 C23 6.98 23 8.96 23 11 C18.375 13.125 18.375 13.125 15 12 C13.28125 10.22265625 13.28125 10.22265625 11.5 8.0625 C9.37123979 5.49024808 7.81608855 3.87739237 5 2 C1.87478167 1.83300768 1.87478167 1.83300768 -1 2 C-0.67 1.34 -0.34 0.68 0 0 Z " fill="#73A064" transform="translate(81,279)"/>
<path d="M0 0 C0.33 0 0.66 0 1 0 C1.19555932 2.72880461 1.38170447 5.45771069 1.5625 8.1875 C1.61857422 8.95642578 1.67464844 9.72535156 1.73242188 10.51757812 C1.99141557 14.54061353 2.06573607 18.06072372 1 22 C0.01 22 -0.98 22 -2 22 C-1.95875 20.9275 -1.9175 19.855 -1.875 18.75 C-1.99299515 15.2101456 -2.40864365 13.97053185 -4 11 C-3.67 10.01 -3.34 9.02 -3 8 C-2.34 7.67 -1.68 7.34 -1 7 C-0.59270772 4.67843403 -0.25561323 2.3431213 0 0 Z " fill="#5B91B0" transform="translate(150,65)"/>
<path d="M0 0 C1.24546405 2.49092811 0.7767578 3.41080733 0 6 C0.66 6.33 1.32 6.66 2 7 C1.67 8.65 1.34 10.3 1 12 C0.01 12.33 -0.98 12.66 -2 13 C-4 12 -4 12 -4.6875 10.25 C-5.07176688 7.48327849 -4.8851437 5.6554311 -4 3 C-1.9375 1.1875 -1.9375 1.1875 0 0 Z " fill="#223036" transform="translate(162,17)"/>
<path d="M0 0 C0.33 0 0.66 0 1 0 C0.45251869 6.84351639 -1.89671664 11.40704497 -7 16 C-7.66 15.67 -8.32 15.34 -9 15 C-8.34 13.35 -7.68 11.7 -7 10 C-6.01 10 -5.02 10 -4 10 C-4.3403125 8.88625 -4.3403125 8.88625 -4.6875 7.75 C-5 5 -5 5 -3.5625 2.6875 C-3.046875 2.130625 -2.53125 1.57375 -2 1 C-1.34 1.33 -0.68 1.66 0 2 C0 1.34 0 0.68 0 0 Z " fill="#203139" transform="translate(109,78)"/>
<path d="M0 0 C3.63 0 7.26 0 11 0 C11 0.33 11 0.66 11 1 C7.7 1 4.4 1 1 1 C1.103125 2.60875 1.20625 4.2175 1.3125 5.875 C1.37050781 6.77992187 1.42851562 7.68484375 1.48828125 8.6171875 C1.7882039 11.36221601 1.7882039 11.36221601 5 13 C5.1875 16.125 5.1875 16.125 5 19 C4.34 19.33 3.68 19.66 3 20 C2.34 18.68 1.68 17.36 1 16 C0.34 16.33 -0.32 16.66 -1 17 C-0.67 11.39 -0.34 5.78 0 0 Z " fill="#72AACC" transform="translate(291,65)"/>
<path d="M0 0 C0.66 0.66 1.32 1.32 2 2 C0.02 4.31 -1.96 6.62 -4 9 C-6.475 8.01 -6.475 8.01 -9 7 C-9 6.01 -9 5.02 -9 4 C-8.34 4 -7.68 4 -7 4 C-7 3.34 -7 2.68 -7 2 C-4.69 1.34 -2.38 0.68 0 0 Z " fill="#F1F4EF" transform="translate(128,250)"/>
<path d="M0 0 C1.98 0.99 3.96 1.98 6 3 C5.42676569 6.86933162 3.61046448 9.15222057 1 12 C0.34 12 -0.32 12 -1 12 C-1.33 10.68 -1.66 9.36 -2 8 C-0.68 8 0.64 8 2 8 C2 7.01 2 6.02 2 5 C1.360625 4.87625 0.72125 4.7525 0.0625 4.625 C-0.618125 4.41875 -1.29875 4.2125 -2 4 C-2.33 3.34 -2.66 2.68 -3 2 C-2.01 1.34 -1.02 0.68 0 0 Z " fill="#83B574" transform="translate(124,176)"/>
<path d="M0 0 C2.5 2 2.5 2 4 4 C3 6 3 6 1 7 C-1 5.625 -1 5.625 -3 4 C-3 3.34 -3 2.68 -3 2 C-4.98 2 -6.96 2 -9 2 C-9.33 2.99 -9.66 3.98 -10 5 C-10.66 5 -11.32 5 -12 5 C-9.48943436 -0.55910964 -5.87371698 -0.8938265 0 0 Z " fill="#6EA2C1" transform="translate(180,29)"/>
<path d="M0 0 C0.42410156 0.433125 0.84820312 0.86625 1.28515625 1.3125 C4.5189711 4.38284729 6.21283304 5.89504441 10.75 6.5 C14.1379411 6.21262259 14.1379411 6.21262259 17 4 C17.33 4.99 17.66 5.98 18 7 C13.86780449 9.00348873 10.57364594 9.57170574 6 9 C2.50470664 6.26455302 0.86412307 4.30222975 0 0 Z " fill="#E6F7DF" transform="translate(89,302)"/>
<path d="M0 0 C1.5 1.25 1.5 1.25 3 3 C3 4.32 3 5.64 3 7 C3.99 7 4.98 7 6 7 C5.67 7.66 5.34 8.32 5 9 C5.5775 9.721875 6.155 10.44375 6.75 11.1875 C8.83333333 13.79166667 10.91666667 16.39583333 13 19 C7.6204108 16.65568361 3.51025691 12.64354741 0 8 C-0.75088938 4.9410077 -0.51771865 3.16383618 0 0 Z " fill="#709F63" transform="translate(77,187)"/>
<path d="M0 0 C5.66153846 1.47692308 5.66153846 1.47692308 7.375 4.125 C7.684375 5.053125 7.684375 5.053125 8 6 C6.35 7.98 4.7 9.96 3 12 C3 11.01 3 10.02 3 9 C2.34 8.34 1.68 7.68 1 7 C1 5 1 5 3 3 C2.01 2.67 1.02 2.34 0 2 C0 1.34 0 0.68 0 0 Z " fill="#202D30" transform="translate(114,159)"/>
<path d="M0 0 C3.96 0 7.92 0 12 0 C11.01 0.33 10.02 0.66 9 1 C8.26676204 3.01508358 8.26676204 3.01508358 8 5 C6.02 5 4.04 5 2 5 C2 4.01 2 3.02 2 2 C1.34 1.34 0.68 0.68 0 0 Z " fill="#6AA1C4" transform="translate(80,99)"/>
<path d="M0 0 C0 4.13781054 -1.71509607 5.20919996 -4.5 8.1875 C-5.3353125 9.08855469 -6.170625 9.98960937 -7.03125 10.91796875 C-8.00578125 11.94857422 -8.00578125 11.94857422 -9 13 C-9.33 12.34 -9.66 11.68 -10 11 C-10.99 11 -11.98 11 -13 11 C-13 10.34 -13 9.68 -13 9 C-12.21625 9.04125 -11.4325 9.0825 -10.625 9.125 C-7.83883881 9.28728734 -7.83883881 9.28728734 -6 7 C-6 5.68 -6 4.36 -6 3 C-5.195625 2.690625 -4.39125 2.38125 -3.5625 2.0625 C-1.10919595 1.23664655 -1.10919595 1.23664655 0 0 Z " fill="#90BD83" transform="translate(129,275)"/>
<path d="M0 0 C0.99 0 1.98 0 3 0 C0.99216826 4.81879617 -2.39748375 6.80874465 -7 9 C-10 9.3125 -10 9.3125 -12 9 C-11.34 8.67 -10.68 8.34 -10 8 C-9.67 7.34 -9.34 6.68 -9 6 C-6.4375 5.375 -6.4375 5.375 -4 5 C-4 3.68 -4 2.36 -4 1 C-1 2 -1 2 0 3 C0 2.01 0 1.02 0 0 Z " fill="#1A2E38" transform="translate(282,89)"/>
<path d="M0 0 C0.33 0 0.66 0 1 0 C1.03738281 1.07378906 1.07476562 2.14757812 1.11328125 3.25390625 C1.17899112 4.6901362 1.24543668 6.12633262 1.3125 7.5625 C1.33505859 8.26697266 1.35761719 8.97144531 1.38085938 9.69726562 C1.63747309 14.75955442 2.76766402 18.44555581 5 23 C3.0625 22.625 3.0625 22.625 1 22 C-0.20029908 19.59940183 -0.11459743 18.10639351 -0.09765625 15.4296875 C-0.09443359 14.53378906 -0.09121094 13.63789062 -0.08789062 12.71484375 C-0.07951172 11.77769531 -0.07113281 10.84054688 -0.0625 9.875 C-0.05798828 8.93011719 -0.05347656 7.98523438 -0.04882812 7.01171875 C-0.03702357 4.67441613 -0.02055759 2.33723939 0 0 Z " fill="#7098AF" transform="translate(60,65)"/>
<path d="M0 0 C0.33 0 0.66 0 1 0 C1.33 4.95 1.66 9.9 2 15 C4.31 15.33 6.62 15.66 9 16 C9 17.32 9 18.64 9 20 C5.59687262 18.94124926 2.98646769 17.99097846 0 16 C-0.22107787 13.2114711 -0.28107535 10.65346819 -0.1875 7.875 C-0.17396484 7.12089844 -0.16042969 6.36679687 -0.14648438 5.58984375 C-0.11109985 3.72625873 -0.05729167 1.86304022 0 0 Z " fill="#303E43" transform="translate(288,34)"/>
<path d="M0 0 C0.44730469 0.39832031 0.89460938 0.79664062 1.35546875 1.20703125 C4.74779939 4.17984125 8.01840224 6.8282194 12 9 C11.38125 9.103125 10.7625 9.20625 10.125 9.3125 C7.63473516 9.87525373 7.63473516 9.87525373 6 13 C5.01 12.67 4.02 12.34 3 12 C3.66 12 4.32 12 5 12 C3.64419322 6.32870721 3.64419322 6.32870721 0 2 C0 1.34 0 0.68 0 0 Z " fill="#6DA3C4" transform="translate(64,88)"/>
<path d="M0 0 C0.33 0 0.66 0 1 0 C1.33 2.64 1.66 5.28 2 8 C-1.75 11 -1.75 11 -4 11 C-5.125 6.25 -5.125 6.25 -4 4 C-3.01 4.33 -2.02 4.66 -1 5 C-0.67 3.35 -0.34 1.7 0 0 Z " fill="#5B96BA" transform="translate(183,70)"/>
<path d="M0 0 C-0.33 0.66 -0.66 1.32 -1 2 C-0.360625 2.226875 0.27875 2.45375 0.9375 2.6875 C3 4 3 4 3.75 6.625 C3.87375 7.800625 3.87375 7.800625 4 9 C3.21625 8.175 2.4325 7.35 1.625 6.5 C-2.05610418 3.35867312 -5.35503149 3.58322434 -10.0234375 3.82421875 C-10.67570312 3.88222656 -11.32796875 3.94023437 -12 4 C-8.59914501 0.59914501 -4.67235329 -1.5574511 0 0 Z " fill="#142A33" transform="translate(271,26)"/>
<path d="M0 0 C0 4.35124623 -2.14415044 6.17601154 -4.98828125 9.30859375 C-7 11 -7 11 -10.75 11.75 C-14 11 -14 11 -15.9375 9 C-16.288125 8.34 -16.63875 7.68 -17 7 C-16.443125 7.33 -15.88625 7.66 -15.3125 8 C-12.56838177 9.18664572 -10.96045262 9.44406789 -8 9 C-5.07273401 6.65818721 -3.60640984 4.32756323 -2 1 C-1.34 0.67 -0.68 0.34 0 0 Z " fill="#6F9663" transform="translate(110,202)"/>
<path d="M0 0 C3.5625 0.1875 3.5625 0.1875 5.5625 2.1875 C4.2425 2.1875 2.9225 2.1875 1.5625 2.1875 C1.5625 2.8475 1.5625 3.5075 1.5625 4.1875 C0.5725 4.1875 -0.4175 4.1875 -1.4375 4.1875 C-1.4375 4.8475 -1.4375 5.5075 -1.4375 6.1875 C-2.0975 6.1875 -2.7575 6.1875 -3.4375 6.1875 C-3.7675 7.1775 -4.0975 8.1675 -4.4375 9.1875 C-4.53515625 3.03515625 -4.53515625 3.03515625 -4.4375 1.1875 C-3.4375 0.1875 -3.4375 0.1875 0 0 Z " fill="#7FB371" transform="translate(82.4375,279.8125)"/>
<path d="M0 0 C0.33 0.66 0.66 1.32 1 2 C-1.64 1.67 -4.28 1.34 -7 1 C-7.226875 1.78375 -7.45375 2.5675 -7.6875 3.375 C-9 6 -9 6 -11.625 7.3125 C-12.40875 7.539375 -13.1925 7.76625 -14 8 C-10.8529879 0.65697176 -7.59450532 -0.50630035 0 0 Z " fill="#6E9A61" transform="translate(140,249)"/>
<path d="M0 0 C-0.165 0.78375 -0.33 1.5675 -0.5 2.375 C-1.26737563 6.39873591 -1.26737563 6.39873591 1 10 C-2.7952131 8.50902342 -4.61042731 6.24299151 -7 3 C-3.375 0 -3.375 0 0 0 Z " fill="#73A863" transform="translate(89,292)"/>
<path d="M0 0 C0.66 0.33 1.32 0.66 2 1 C0.63716814 6.57522124 0.63716814 6.57522124 -2.4375 8.625 C-3.283125 9.07875 -4.12875 9.5325 -5 10 C-6.78344178 12.06954847 -6.78344178 12.06954847 -8 14 C-8 9.43570088 -7.54064399 9.02691899 -4.5625 5.875 C-1.96760401 3.1556954 -1.96760401 3.1556954 0 0 Z " fill="#EBF8E5" transform="translate(143,164)"/>
<path d="M0 0 C3.99452176 1.36955032 6.92159754 3.0926199 10 6 C10.8125 8.25 10.8125 8.25 11 10 C10.401875 9.360625 9.80375 8.72125 9.1875 8.0625 C7.09189663 5.79689611 7.09189663 5.79689611 4 5 C3.34 4.34 2.68 3.68 2 3 C1.01 3 0.02 3 -1 3 C-0.67 2.01 -0.34 1.02 0 0 Z " fill="#6FA5C2" transform="translate(307,67)"/>
<path d="M0 0 C0.43183594 0.57621094 0.86367188 1.15242188 1.30859375 1.74609375 C2.38242914 3.17704761 3.45777404 4.60687092 4.53515625 6.03515625 C5.03917969 6.70417969 5.54320312 7.37320312 6.0625 8.0625 C6.56910156 8.73410156 7.07570313 9.40570313 7.59765625 10.09765625 C8.77792898 11.69875045 9.896642 13.344963 11 15 C10.01 15 9.02 15 8 15 C6.29939257 12.86175784 4.79794342 10.77910139 3.3125 8.5 C2.89677734 7.87996094 2.48105469 7.25992187 2.05273438 6.62109375 C1.02596494 5.08684057 0.01177775 3.54418071 -1 2 C-0.67 1.34 -0.34 0.68 0 0 Z " fill="#EAEBEC" transform="translate(18,346)"/>
<path d="M0 0 C1.30048841 2.60097682 1.56471422 5.13955062 2 8 C2.66 8 3.32 8 4 8 C4.33 8.99 4.66 9.98 5 11 C4.34 11.66 3.68 12.32 3 13 C0.65849012 11.24386759 -0.85600085 9.96311122 -1.30078125 6.98828125 C-1.3115456 4.98970012 -1.16327294 2.99192981 -1 1 C-0.67 0.67 -0.34 0.34 0 0 Z " fill="#6D9D61" transform="translate(78,282)"/>
<path d="M0 0 C3 0 3 0 6 2 C5.67 3.65 5.34 5.3 5 7 C2.525 6.01 2.525 6.01 0 5 C0 3.35 0 1.7 0 0 Z " fill="#ECEDEA" transform="translate(249,311)"/>
<path d="M0 0 C1.1446875 0.2784375 1.1446875 0.2784375 2.3125 0.5625 C5.08967375 1.22819173 5.08967375 1.22819173 8 0 C9.125 4.75 9.125 4.75 8 7 C6.66382648 6.02471263 5.3311249 5.04466681 4 4.0625 C3.2575 3.51722656 2.515 2.97195312 1.75 2.41015625 C1.1725 1.94480469 0.595 1.47945313 0 1 C0 0.67 0 0.34 0 0 Z " fill="#1D2D36" transform="translate(308,66)"/>
<path d="M0 0 C0.33 0 0.66 0 1 0 C1.36923077 6.52307692 1.36923077 6.52307692 -0.5 8.9375 C-0.995 9.288125 -1.49 9.63875 -2 10 C-2 9.34 -2 8.68 -2 8 C-2.99 7.67 -3.98 7.34 -5 7 C-5 6.34 -5 5.68 -5 5 C-4.01 5 -3.02 5 -2 5 C-1.34 3.35 -0.68 1.7 0 0 Z " fill="#1B252A" transform="translate(248,309)"/>
<path d="M0 0 C0 0.99 0 1.98 0 3 C-1.63604196 4.37073786 -3.30678061 5.70055256 -5 7 C-6.76323505 9.12603185 -6.76323505 9.12603185 -8 11 C-8.66 10.67 -9.32 10.34 -10 10 C-8.90453883 8.51437458 -7.79831177 7.03668291 -6.6875 5.5625 C-6.07261719 4.73878906 -5.45773438 3.91507812 -4.82421875 3.06640625 C-3 1 -3 1 0 0 Z " fill="#75A365" transform="translate(119,266)"/>
<path d="M0 0 C1.65 0 3.3 0 5 0 C4.75 2.375 4.75 2.375 4 5 C1.9375 6.3125 1.9375 6.3125 0 7 C0 4.66666667 0 2.33333333 0 0 Z " fill="#7EB471" transform="translate(114,286)"/>
<path d="M0 0 C0.99 0.66 1.98 1.32 3 2 C0.36 5.3 -2.28 8.6 -5 12 C-5.33 11.01 -5.66 10.02 -6 9 C-5.38125 8.443125 -4.7625 7.88625 -4.125 7.3125 C-1.93893621 4.93354822 -1.01214301 3.03642904 0 0 Z " fill="#6B9C5E" transform="translate(136,264)"/>
<path d="M0 0 C0.94875 0.04125 1.8975 0.0825 2.875 0.125 C2.545 0.785 2.215 1.445 1.875 2.125 C0.225 2.125 -1.425 2.125 -3.125 2.125 C-2.795 3.115 -2.465 4.105 -2.125 5.125 C-3.775 5.455 -5.425 5.785 -7.125 6.125 C-4.34782609 0.17391304 -4.34782609 0.17391304 0 0 Z " fill="#20292E" transform="translate(67.125,159.875)"/>
<path d="M0 0 C0.66 0.33 1.32 0.66 2 1 C-0.31 3.97 -2.62 6.94 -5 10 C-5.66 9.34 -6.32 8.68 -7 8 C-5.625 5.5 -5.625 5.5 -4 3 C-3.34 3 -2.68 3 -2 3 C-2 2.34 -2 1.68 -2 1 C-1.34 0.67 -0.68 0.34 0 0 Z " fill="#E8F4E2" transform="translate(128,155)"/>
<path d="M0 0 C3.96 0 7.92 0 12 0 C11.67 0.99 11.34 1.98 11 3 C9.54257537 3.08096803 8.08387193 3.13917774 6.625 3.1875 C5.81289062 3.22230469 5.00078125 3.25710938 4.1640625 3.29296875 C3.44992188 3.19628906 2.73578125 3.09960938 2 3 C1.34 2.01 0.68 1.02 0 0 Z " fill="#D1D2D1" transform="translate(80,11)"/>
<path d="M0 0 C0.66 0 1.32 0 2 0 C1.52797514 4.24822374 -0.96655518 6.19989709 -4 9 C-3.7525 8.1028125 -3.7525 8.1028125 -3.5 7.1875 C-2.8885876 4.88655664 -2.8885876 4.88655664 -3 2 C-2.34 2 -1.68 2 -1 2 C-0.67 1.34 -0.34 0.68 0 0 Z " fill="#1D2F2E" transform="translate(120,258)"/>
<path d="M0 0 C0.33 0 0.66 0 1 0 C1.268125 1.258125 1.53625 2.51625 1.8125 3.8125 C2.59532537 6.99448801 3.25335928 9.00244311 6 11 C5.01 11.33 4.02 11.66 3 12 C2.54625 11.525625 2.0925 11.05125 1.625 10.5625 C0.06741796 8.90972192 0.06741796 8.90972192 -2 8 C-1.34 5.36 -0.68 2.72 0 0 Z " fill="#D7DAD9" transform="translate(158,215)"/>
<path d="M0 0 C0.66 0 1.32 0 2 0 C1.42647107 3.87132028 -0.48704352 6.08172796 -3 9 C-3.66 8.34 -4.32 7.68 -5 7 C-4.625 4.875 -4.625 4.875 -4 3 C-3.01 3 -2.02 3 -1 3 C-0.67 2.01 -0.34 1.02 0 0 Z " fill="#1A3037" transform="translate(35,70)"/>
<path d="M0 0 C5.62917348 0.40208382 8.00386479 2.28930302 12 6 C10.68 6.33 9.36 6.66 8 7 C8 6.01 8 5.02 8 4 C7.05125 3.71125 6.1025 3.4225 5.125 3.125 C2 2 2 2 0 0 Z " fill="#192025" transform="translate(182,15)"/>
<path d="M0 0 C1 4 1 4 1 7 C0.01 7.33 -0.98 7.66 -2 8 C-2.33 8.66 -2.66 9.32 -3 10 C-3.66 9.67 -4.32 9.34 -5 9 C-3.35 6.03 -1.7 3.06 0 0 Z " fill="#6CA2BF" transform="translate(200,81)"/>
<path d="M0 0 C-1.65 1.65 -3.3 3.3 -5 5 C-5.66 4.34 -6.32 3.68 -7 3 C-7.99 3.495 -7.99 3.495 -9 4 C-8.67 3.01 -8.34 2.02 -8 1 C-5.29120665 -0.35439668 -2.99066732 -0.06501451 0 0 Z " fill="#739E65" transform="translate(87,183)"/>
<path d="M0 0 C3.3 1.65 6.6 3.3 10 5 C9.01 5.66 8.02 6.32 7 7 C3.63983107 5.87994369 2.30935087 4.62788203 0 2 C0 1.34 0 0.68 0 0 Z " fill="#71A7C6" transform="translate(158,93)"/>
<path d="M0 0 C0.66 0.66 1.32 1.32 2 2 C-0.97 4.475 -0.97 4.475 -4 7 C-4 5.35 -4 3.7 -4 2 C-2.68 1.34 -1.36 0.68 0 0 Z " fill="#EBF8E6" transform="translate(128,250)"/>
<path d="M0 0 C0.66 0.33 1.32 0.66 2 1 C1.34 3.64 0.68 6.28 0 9 C-0.99 8.34 -1.98 7.68 -3 7 C-3 3 -3 3 -1.5 1.25 C-1.005 0.8375 -0.51 0.425 0 0 Z " fill="#E2F1DA" transform="translate(77,184)"/>
<path d="M0 0 C1.32 0 2.64 0 4 0 C2.55746343 3.36591866 0.66735273 5.51047079 -2 8 C-1.34 5.36 -0.68 2.72 0 0 Z " fill="#719F65" transform="translate(107,298)"/>
<path d="M0 0 C0.99 0 1.98 0 3 0 C2.67 4.29 2.34 8.58 2 13 C1.67 13 1.34 13 1 13 C0.93941406 12.37351562 0.87882813 11.74703125 0.81640625 11.1015625 C0.73261719 10.28429688 0.64882812 9.46703125 0.5625 8.625 C0.48128906 7.81289063 0.40007812 7.00078125 0.31640625 6.1640625 C0.10909886 3.95727195 0.10909886 3.95727195 -1 2 C-0.67 1.34 -0.34 0.68 0 0 Z " fill="#5994B8" transform="translate(182,34)"/>
<path d="M0 0 C3 3.75 3 3.75 3 6 C2.01 6.33 1.02 6.66 0 7 C-0.66 5.35 -1.32 3.7 -2 2 C-1.34 1.34 -0.68 0.68 0 0 Z " fill="#5F97B8" transform="translate(291,79)"/>
<path d="M0 0 C1.27351308 2.54702616 0.80191925 3.4282945 0.0625 6.125 C-0.13214844 6.84945313 -0.32679687 7.57390625 -0.52734375 8.3203125 C-0.68332031 8.87460937 -0.83929688 9.42890625 -1 10 C-1.66 10 -2.32 10 -3 10 C-2.25 3.375 -2.25 3.375 0 0 Z " fill="#1B2225" transform="translate(65,24)"/>
<path d="M0 0 C0.99 0.33 1.98 0.66 3 1 C2.01 2.98 1.02 4.96 0 7 C-0.33 6.34 -0.66 5.68 -1 5 C-1.66 4.67 -2.32 4.34 -3 4 C-2.01 2.68 -1.02 1.36 0 0 Z " fill="#344042" transform="translate(325,353)"/>
<path d="M0 0 C0.66 0.33 1.32 0.66 2 1 C2.35412344 2.32796291 2.68521554 3.66216607 3 5 C3.99 6.485 3.99 6.485 5 8 C1.63279613 6.60667426 0.0140476 5.0210714 -2 2 C-1.34 2 -0.68 2 0 2 C0 1.34 0 0.68 0 0 Z " fill="#151F20" transform="translate(29,356)"/>
<path d="M0 0 C1.32 0.33 2.64 0.66 4 1 C4.33 2.65 4.66 4.3 5 6 C3.0625 5.25 3.0625 5.25 1 4 C0.25 1.875 0.25 1.875 0 0 Z M4 3 C6 4 6 4 6 4 Z " fill="#EEEFF0" transform="translate(130,224)"/>
<path d="M0 0 C1.98 0.66 3.96 1.32 6 2 C5.34 3.32 4.68 4.64 4 6 C2.62437146 4.71034824 1.29233607 3.37310707 0 2 C0 1.34 0 0.68 0 0 Z " fill="#E8F5E2" transform="translate(91,185)"/>
<path d="M0 0 C2.49361571 1.20381448 4.68143083 2.45428722 7 4 C4.69 4.33 2.38 4.66 0 5 C-0.5625 3.0625 -0.5625 3.0625 -1 1 C-0.67 0.67 -0.34 0.34 0 0 Z " fill="#E6F6DD" transform="translate(80,179)"/>
<path d="M0 0 C0 3.90838866 -1.50567876 5.11594107 -4 8 C-4.66 7.67 -5.32 7.34 -6 7 C-4.52307692 2.32307692 -4.52307692 2.32307692 -1.875 0.6875 C-1.25625 0.460625 -0.6375 0.23375 0 0 Z " fill="#6E9E63" transform="translate(137,170)"/>
<path d="M0 0 C1.98 0 3.96 0 6 0 C6.33 1.32 6.66 2.64 7 4 C4.03 3.505 4.03 3.505 1 3 C0.67 2.01 0.34 1.02 0 0 Z " fill="#5995BA" transform="translate(184,97)"/>
<path d="M0 0 C0.99 0 1.98 0 3 0 C3 3 3 3 1.5 4.6875 C1.005 5.120625 0.51 5.55375 0 6 C-0.66 5.67 -1.32 5.34 -2 5 C-1.34 3.35 -0.68 1.7 0 0 Z " fill="#192932" transform="translate(102,88)"/>
<path d="M0 0 C1 3 1 3 0 6 C-1.32 6 -2.64 6 -4 6 C-2.84826645 3.53199953 -1.95216435 1.95216435 0 0 Z " fill="#6CA7CE" transform="translate(40,69)"/>
<path d="M0 0 C0.66 0 1.32 0 2 0 C2 0.66 2 1.32 2 2 C2.99 2.33 3.98 2.66 5 3 C4.34 3.66 3.68 4.32 3 5 C2.34 6.32 1.68 7.64 1 9 C0.67 6.03 0.34 3.06 0 0 Z " fill="#1A303C" transform="translate(165,28)"/>
</svg>
